<svg width="1888" height="508" viewBox="0 0 1888 508" version="1.1" xmlns="http://www.w3.org/2000/svg" xmlns:xlink="http://www.w3.org/1999/xlink">
<title>Keyboard</title>
<desc>Created using Figma</desc>
<g id="Canvas" transform="translate(6224 -5177)">
<g id="Keyboard">
<g id="Light">
<g id="Background" filter="url(#filter0_d)">
<use xlink:href="#path0_fill" transform="translate(-6220 5177)" fill="#F0F0F0"/>
</g>
<g id="Keyboard">
<g id="key">
<g id="letter">
<use xlink:href="#path1_fill" transform="translate(-6180 5217)"/>
</g>
</g>
<g id="key">
<g id="letter">
<use xlink:href="#path2_fill" transform="translate(-6120 5317)"/>
</g>
</g>
<g id="key">
<g id="letter">
<use xlink:href="#path3_fill" transform="translate(-6000 5317)"/>
</g>
</g>
<g id="key">
<g id="letter">
<use xlink:href="#path4_fill" transform="translate(-5880 5317)"/>
</g>
</g>
<g id="key">
<g id="letter">
<use xlink:href="#path5_fill" transform="translate(-5760 5317)"/>
</g>
</g>
<g id="key">
<g id="letter">
<use xlink:href="#path6_fill" transform="translate(-5640 5317)"/>
</g>
</g>
<g id="key">
<g id="letter">
<use xlink:href="#path7_fill" transform="translate(-5520 5317)"/>
</g>
</g>
<g id="key">
<g id="letter">
<use xlink:href="#path8_fill" transform="translate(-5400 5317)"/>
</g>
</g>
<g id="key">
<g id="letter">
<use xlink:href="#path9_fill" transform="translate(-5280 5317)"/>
</g>
</g>
<g id="key">
<g id="letter">
<use xlink:href="#path10_fill" transform="translate(-6060 5417)"/>
</g>
</g>
<g id="key">
<g id="letter">
<use xlink:href="#path11_fill" transform="translate(-5940 5417)"/>
</g>
</g>
<g id="key">
<g id="letter">
<use xlink:href="#path12_fill" transform="translate(-5820 5417)"/>
</g>
</g>
<g id="key">
<g id="letter">
<use xlink:href="#path13_fill" transform="translate(-5700 5417)"/>
</g>
</g>
<g id="key">
<g id="letter">
<use xlink:href="#path14_fill" transform="translate(-5580 5417)"/>
</g>
</g>
<g id="key">
<g id="letter">
<use xlink:href="#path15_fill" transform="translate(-5460 5417)"/>
</g>
</g>
<g id="key">
<g id="letter">
<use xlink:href="#path16_fill" transform="translate(-5340 5417)"/>
</g>
</g>
<g id="key">
<g id="letter">
<use xlink:href="#path17_fill" transform="translate(-5220 5417)"/>
</g>
</g>
<g id="key">
<g id="letter">
<use xlink:href="#path18_fill" transform="translate(-5100 5417)"/>
</g>
</g>
<g id="key">
<g id="letter">
<use xlink:href="#path19_fill" transform="translate(-4980 5417)"/>
</g>
</g>
<g id="key">
<g id="letter">
<use xlink:href="#path20_fill" transform="translate(-5160 5317)"/>
</g>
</g>
<g id="key">
<g id="letter">
<use xlink:href="#path21_fill" transform="translate(-6060 5217)"/>
</g>
</g>
<g id="key">
<g id="letter">
<use xlink:href="#path22_fill" transform="translate(-5940 5217)"/>
</g>
</g>
<g id="key">
<g id="letter">
<use xlink:href="#path23_fill" transform="translate(-5820 5217)"/>
</g>
</g>
<g id="key">
<g id="letter">
<use xlink:href="#path24_fill" transform="translate(-5700 5217)"/>
</g>
</g>
<g id="key">
<g id="letter">
<use xlink:href="#path25_fill" transform="translate(-5580 5217)"/>
</g>
</g>
<g id="key">
<g id="letter">
<use xlink:href="#path26_fill" transform="translate(-5460 5217)"/>
</g>
</g>
<g id="key">
<g id="letter">
<use xlink:href="#path27_fill" transform="translate(-5340 5217)"/>
</g>
</g>
<g id="key">
<g id="letter">
<use xlink:href="#path28_fill" transform="translate(-5220 5217)"/>
</g>
</g>
<g id="key">
<g id="letter">
<use xlink:href="#path29_fill" transform="translate(-5100 5217)"/>
</g>
</g>
</g>
<g id="Numpad">
<g id="key">
<g id="letter">
<use xlink:href="#path30_fill" transform="translate(-4500 5217)"/>
</g>
</g>
<g id="key">
<g id="letter">
<use xlink:href="#path31_fill" transform="translate(-4620 5217)"/>
</g>
</g>
<g id="key">
<g id="letter">
<use xlink:href="#path32_fill" transform="translate(-4740 5217)"/>
</g>
</g>
<g id="key">
<g id="letter">
<use xlink:href="#path33_fill" transform="translate(-4500 5317)"/>
</g>
</g>
<g id="key">
<g id="letter">
<use xlink:href="#path34_fill" transform="translate(-4620 5317)"/>
</g>
</g>
<g id="key">
<g id="letter">
<use xlink:href="#path35_fill" transform="translate(-4740 5317)"/>
</g>
</g>
<g id="key">
<g id="letter">
<use xlink:href="#path36_fill" transform="translate(-4500 5417)"/>
</g>
</g>
<g id="key">
<g id="letter">
<use xlink:href="#path37_fill" transform="translate(-4620 5417)"/>
</g>
</g>
<g id="key">
<g id="letter">
<use xlink:href="#path38_fill" transform="translate(-4740 5417)"/>
</g>
</g>
<g id="key">
<g id="letter">
<use xlink:href="#path39_fill" transform="translate(-4620 5517)"/>
</g>
</g>
</g>
<g id="enter">
<g id="Rectangle 12">
<use xlink:href="#path40_fill" transform="translate(-5020 5337)" fill="#0E0E0E"/>
<use xlink:href="#path40_fill" transform="translate(-5020 5337)" fill="#FFFFFF" fill-opacity="0.8"/>
</g>
<g id="ENTER">
<use xlink:href="#path41_fill" transform="translate(-5000 5355)"/>
</g>
</g>
<g id="backspace">
<g id="Rectangle 12">
<use xlink:href="#path42_fill" transform="translate(-4960 5237)" fill="#0E0E0E"/>
<use xlink:href="#path42_fill" transform="translate(-4960 5237)" fill="#FFFFFF" fill-opacity="0.8"/>
</g>
<g id="&#60;---">
<use xlink:href="#path43_fill" transform="translate(-4940 5255)"/>
</g>
</g>
<g id="next">
<g id="Rectangle 12">
<use xlink:href="#path44_fill" transform="translate(-4907 5537)" fill="#0E0E0E"/>
<use xlink:href="#path44_fill" transform="translate(-4907 5537)" fill="#FFFFFF" fill-opacity="0.8"/>
</g>
<g id="&#62;">
<use xlink:href="#path45_fill" transform="translate(-4887 5555)"/>
</g>
</g>
<g id="back">
<g id="Rectangle 12">
<use xlink:href="#path44_fill" transform="translate(-5030 5537)" fill="#0E0E0E"/>
<use xlink:href="#path44_fill" transform="translate(-5030 5537)" fill="#FFFFFF" fill-opacity="0.8"/>
</g>
<g id="&#60;">
<use xlink:href="#path46_fill" transform="translate(-5010 5555)"/>
</g>
</g>
<g id="symbols">
<g id="Rectangle 12">
<use xlink:href="#path47_fill" transform="translate(-5216 5537)" fill="#0E0E0E"/>
<use xlink:href="#path47_fill" transform="translate(-5216 5537)" fill="#FFFFFF" fill-opacity="0.8"/>
</g>
<g id="?#&#38;">
<use xlink:href="#path48_fill" transform="translate(-5196 5555)"/>
</g>
</g>
<g id="shift">
<g id="Rectangle 12">
<use xlink:href="#path49_fill" transform="translate(-6180 5537)" fill="#0E0E0E"/>
<use xlink:href="#path49_fill" transform="translate(-6180 5537)" fill="#FFFFFF" fill-opacity="0.8"/>
</g>
<g id="^">
<use xlink:href="#path50_fill" transform="translate(-6160 5555)"/>
</g>
</g>
<g id="spacebar">
<g id="Rectangle 12">
<use xlink:href="#path51_fill" transform="translate(-5984 5537)" fill="#0E0E0E"/>
<use xlink:href="#path51_fill" transform="translate(-5984 5537)" fill="#FFFFFF" fill-opacity="0.8"/>
</g>
</g>
</g>
</g>
</g>
<defs>
<filter id="filter0_d" filterUnits="userSpaceOnUse" x="-6224" y="5177" width="1888" height="508" color-interpolation-filters="sRGB">
<feFlood flood-opacity="0" result="BackgroundImageFix"/>
<feColorMatrix in="SourceAlpha" type="matrix" values="0 0 0 0 0 0 0 0 0 0 0 0 0 0 0 0 0 0 255 0"/>
<feOffset dx="0" dy="4"/>
<feGaussianBlur stdDeviation="2"/>
<feColorMatrix type="matrix" values="0 0 0 0 0 0 0 0 0 0 0 0 0 0 0 0 0 0 0.25 0"/>
<feBlend mode="normal" in2="BackgroundImageFix" result="effect1_dropShadow"/>
<feBlend mode="normal" in="SourceGraphic" in2="effect1_dropShadow" result="shape"/>
</filter>
<path id="path0_fill" d="M 0 10C 0 4.47715 4.47715 0 10 0L 1870 0C 1875.52 0 1880 4.47715 1880 10L 1880 490C 1880 495.523 1875.52 500 1870 500L 10 500C 4.47715 500 0 495.523 0 490L 0 10Z"/>
<path id="path1_fill" d="M 74.6188 65.304C 73.8028 66.264 72.8548 66.996 71.7748 67.5C 70.6948 68.004 69.5308 68.256 68.2828 68.256C 66.6988 68.256 65.2108 67.872 63.8188 67.104C 62.4508 66.36 60.8788 65.076 59.1028 63.252C 56.7268 63.132 54.5788 62.496 52.6588 61.344C 50.7628 60.192 49.2748 58.668 48.1948 56.772C 47.1388 54.852 46.6108 52.728 46.6108 50.4C 46.6108 47.976 47.1868 45.78 48.3388 43.812C 49.5148 41.844 51.1228 40.308 53.1628 39.204C 55.2028 38.076 57.4948 37.512 60.0388 37.512C 62.5588 37.512 64.8388 38.076 66.8788 39.204C 68.9188 40.308 70.5148 41.844 71.6668 43.812C 72.8188 45.756 73.3948 47.952 73.3948 50.4C 73.3948 52.464 72.9748 54.36 72.1348 56.088C 71.3188 57.816 70.1548 59.268 68.6428 60.444C 67.1548 61.62 65.4388 62.436 63.4948 62.892C 64.3348 63.78 65.1388 64.416 65.9068 64.8C 66.6988 65.208 67.5028 65.412 68.3188 65.412C 70.0948 65.412 71.6308 64.692 72.9268 63.252L 74.6188 65.304ZM 50.2108 50.4C 50.2108 52.224 50.6308 53.88 51.4708 55.368C 52.3348 56.832 53.5108 57.984 54.9988 58.824C 56.5108 59.664 58.1908 60.084 60.0388 60.084C 61.8628 60.084 63.5188 59.664 65.0068 58.824C 66.4948 57.984 67.6588 56.832 68.4988 55.368C 69.3628 53.88 69.7948 52.224 69.7948 50.4C 69.7948 48.576 69.3628 46.932 68.4988 45.468C 67.6588 43.98 66.4948 42.816 65.0068 41.976C 63.5188 41.136 61.8628 40.716 60.0388 40.716C 58.1908 40.716 56.5108 41.136 54.9988 41.976C 53.5108 42.816 52.3348 43.98 51.4708 45.468C 50.6308 46.932 50.2108 48.576 50.2108 50.4Z"/>
<path id="path2_fill" d="M 66.6524 56.7L 53.2604 56.7L 50.4884 63L 46.7804 63L 58.1924 37.8L 61.7564 37.8L 73.2044 63L 69.4244 63L 66.6524 56.7ZM 65.3924 53.82L 59.9564 41.472L 54.5204 53.82L 65.3924 53.82Z"/>
<path id="path3_fill" d="M 59.9443 63.288C 58.0483 63.288 56.2123 63 54.4363 62.424C 52.6843 61.824 51.3043 61.056 50.2963 60.12L 51.6283 57.312C 52.5883 58.176 53.8123 58.884 55.3003 59.436C 56.8123 59.964 58.3603 60.228 59.9443 60.228C 62.0323 60.228 63.5923 59.88 64.6243 59.184C 65.6563 58.464 66.1723 57.516 66.1723 56.34C 66.1723 55.476 65.8843 54.78 65.3083 54.252C 64.7563 53.7 64.0603 53.28 63.2203 52.992C 62.4043 52.704 61.2403 52.38 59.7283 52.02C 57.8323 51.564 56.2963 51.108 55.1203 50.652C 53.9683 50.196 52.9723 49.5 52.1323 48.564C 51.3163 47.604 50.9083 46.32 50.9083 44.712C 50.9083 43.368 51.2563 42.156 51.9523 41.076C 52.6723 39.996 53.7523 39.132 55.1923 38.484C 56.6323 37.836 58.4203 37.512 60.5563 37.512C 62.0443 37.512 63.5083 37.704 64.9483 38.088C 66.3883 38.472 67.6243 39.024 68.6563 39.744L 67.4683 42.624C 66.4123 41.952 65.2843 41.448 64.0843 41.112C 62.8843 40.752 61.7083 40.572 60.5563 40.572C 58.5163 40.572 56.9803 40.944 55.9483 41.688C 54.9403 42.432 54.4363 43.392 54.4363 44.568C 54.4363 45.432 54.7243 46.14 55.3003 46.692C 55.8763 47.22 56.5843 47.64 57.4243 47.952C 58.2883 48.24 59.4523 48.552 60.9163 48.888C 62.8123 49.344 64.3363 49.8 65.4883 50.256C 66.6403 50.712 67.6243 51.408 68.4403 52.344C 69.2803 53.28 69.7003 54.54 69.7003 56.124C 69.7003 57.444 69.3403 58.656 68.6203 59.76C 67.9003 60.84 66.8083 61.704 65.3443 62.352C 63.8803 62.976 62.0803 63.288 59.9443 63.288Z"/>
<path id="path4_fill" d="M 48.9089 37.8L 59.5289 37.8C 62.1929 37.8 64.5569 38.328 66.6209 39.384C 68.6849 40.44 70.2809 41.928 71.4089 43.848C 72.5609 45.744 73.1369 47.928 73.1369 50.4C 73.1369 52.872 72.5609 55.068 71.4089 56.988C 70.2809 58.884 68.6849 60.36 66.6209 61.416C 64.5569 62.472 62.1929 63 59.5289 63L 48.9089 63L 48.9089 37.8ZM 59.3129 59.868C 61.3529 59.868 63.1409 59.472 64.6769 58.68C 66.2369 57.888 67.4369 56.784 68.2769 55.368C 69.1169 53.928 69.5369 52.272 69.5369 50.4C 69.5369 48.528 69.1169 46.884 68.2769 45.468C 67.4369 44.028 66.2369 42.912 64.6769 42.12C 63.1409 41.328 61.3529 40.932 59.3129 40.932L 52.5089 40.932L 52.5089 59.868L 59.3129 59.868Z"/>
<path id="path5_fill" d="M 55.9542 40.932L 55.9542 49.716L 68.5902 49.716L 68.5902 52.812L 55.9542 52.812L 55.9542 63L 52.3542 63L 52.3542 37.8L 70.1382 37.8L 70.1382 40.932L 55.9542 40.932Z"/>
<path id="path6_fill" d="M 67.3357 50.256L 70.7917 50.256L 70.7917 60.084C 69.5437 61.116 68.0917 61.908 66.4357 62.46C 64.7797 63.012 63.0517 63.288 61.2517 63.288C 58.7077 63.288 56.4157 62.736 54.3757 61.632C 52.3357 60.504 50.7277 58.968 49.5517 57.024C 48.3997 55.056 47.8237 52.848 47.8237 50.4C 47.8237 47.952 48.3997 45.744 49.5517 43.776C 50.7277 41.808 52.3357 40.272 54.3757 39.168C 56.4397 38.064 58.7557 37.512 61.3237 37.512C 63.3397 37.512 65.1637 37.848 66.7957 38.52C 68.4517 39.168 69.8557 40.128 71.0077 41.4L 68.7757 43.632C 66.7597 41.688 64.3237 40.716 61.4677 40.716C 59.5477 40.716 57.8197 41.136 56.2837 41.976C 54.7717 42.792 53.5837 43.944 52.7197 45.432C 51.8557 46.896 51.4237 48.552 51.4237 50.4C 51.4237 52.224 51.8557 53.88 52.7197 55.368C 53.5837 56.832 54.7717 57.984 56.2837 58.824C 57.8197 59.664 59.5357 60.084 61.4317 60.084C 63.6877 60.084 65.6557 59.544 67.3357 58.464L 67.3357 50.256Z"/>
<path id="path7_fill" d="M 70.8446 37.8L 70.8446 63L 67.2446 63L 67.2446 51.768L 52.7726 51.768L 52.7726 63L 49.1726 63L 49.1726 37.8L 52.7726 37.8L 52.7726 48.636L 67.2446 48.636L 67.2446 37.8L 70.8446 37.8Z"/>
<path id="path8_fill" d="M 57.7915 63.288C 56.2795 63.288 54.8755 62.976 53.5795 62.352C 52.2835 61.704 51.2395 60.804 50.4475 59.652L 52.5355 57.204C 53.9275 59.196 55.6795 60.192 57.7915 60.192C 59.2075 60.192 60.2755 59.76 60.9955 58.896C 61.7395 58.032 62.1115 56.76 62.1115 55.08L 62.1115 40.932L 53.0035 40.932L 53.0035 37.8L 65.6755 37.8L 65.6755 54.9C 65.6755 57.684 65.0035 59.784 63.6595 61.2C 62.3395 62.592 60.3835 63.288 57.7915 63.288Z"/>
<path id="path9_fill" d="M 59.0505 51.804L 54.4425 56.484L 54.4425 63L 50.8425 63L 50.8425 37.8L 54.4425 37.8L 54.4425 51.876L 68.1225 37.8L 72.2265 37.8L 61.4625 49.14L 72.9105 63L 68.6985 63L 59.0505 51.804Z"/>
<path id="path10_fill" d="M 70.7779 59.868L 70.7779 63L 49.7179 63L 49.7179 60.552L 65.5579 40.932L 49.9699 40.932L 49.9699 37.8L 70.3099 37.8L 70.3099 40.248L 54.5419 59.868L 70.7779 59.868Z"/>
<path id="path11_fill" d="M 67.5087 63L 59.9487 52.596L 52.4967 63L 48.3567 63L 57.8247 50.076L 48.9327 37.8L 53.0367 37.8L 60.0927 47.484L 67.0767 37.8L 71.0007 37.8L 62.1087 49.968L 71.6487 63L 67.5087 63Z"/>
<path id="path12_fill" d="M 62.0402 63.288C 59.5202 63.288 57.2402 62.736 55.2002 61.632C 53.1842 60.504 51.6002 58.968 50.4482 57.024C 49.2962 55.056 48.7202 52.848 48.7202 50.4C 48.7202 47.952 49.2962 45.756 50.4482 43.812C 51.6002 41.844 53.1962 40.308 55.2362 39.204C 57.2762 38.076 59.5562 37.512 62.0762 37.512C 64.0442 37.512 65.8442 37.848 67.4762 38.52C 69.1082 39.168 70.5002 40.14 71.6522 41.436L 69.3122 43.704C 67.4162 41.712 65.0522 40.716 62.2202 40.716C 60.3482 40.716 58.6562 41.136 57.1442 41.976C 55.6322 42.816 54.4442 43.98 53.5802 45.468C 52.7402 46.932 52.3202 48.576 52.3202 50.4C 52.3202 52.224 52.7402 53.88 53.5802 55.368C 54.4442 56.832 55.6322 57.984 57.1442 58.824C 58.6562 59.664 60.3482 60.084 62.2202 60.084C 65.0282 60.084 67.3922 59.076 69.3122 57.06L 71.6522 59.328C 70.5002 60.624 69.0962 61.608 67.4402 62.28C 65.8082 62.952 64.0082 63.288 62.0402 63.288Z"/>
<path id="path13_fill" d="M 72.8535 37.8L 61.8015 63L 58.2375 63L 47.1495 37.8L 51.0375 37.8L 60.1095 58.5L 69.2535 37.8L 72.8535 37.8Z"/>
<path id="path14_fill" d="M 67.113 49.932C 68.577 50.34 69.729 51.084 70.569 52.164C 71.409 53.22 71.829 54.564 71.829 56.196C 71.829 58.38 71.001 60.06 69.345 61.236C 67.713 62.412 65.325 63 62.181 63L 50.157 63L 50.157 37.8L 61.461 37.8C 64.341 37.8 66.561 38.376 68.121 39.528C 69.705 40.68 70.497 42.276 70.497 44.316C 70.497 45.636 70.185 46.776 69.561 47.736C 68.961 48.696 68.145 49.428 67.113 49.932ZM 53.757 40.716L 53.757 48.78L 61.137 48.78C 62.985 48.78 64.401 48.444 65.385 47.772C 66.393 47.076 66.897 46.068 66.897 44.748C 66.897 43.428 66.393 42.432 65.385 41.76C 64.401 41.064 62.985 40.716 61.137 40.716L 53.757 40.716ZM 62.037 60.084C 64.077 60.084 65.613 59.748 66.645 59.076C 67.677 58.404 68.193 57.348 68.193 55.908C 68.193 53.1 66.141 51.696 62.037 51.696L 53.757 51.696L 53.757 60.084L 62.037 60.084Z"/>
<path id="path15_fill" d="M 70.8446 37.8L 70.8446 63L 67.8926 63L 52.7726 44.208L 52.7726 63L 49.1726 63L 49.1726 37.8L 52.1246 37.8L 67.2446 56.592L 67.2446 37.8L 70.8446 37.8Z"/>
<path id="path16_fill" d="M 69.9526 63L 69.9166 44.64L 60.8086 59.94L 59.1526 59.94L 50.0446 44.748L 50.0446 63L 46.5886 63L 46.5886 37.8L 49.5406 37.8L 60.0526 55.512L 70.4206 37.8L 73.3726 37.8L 73.4086 63L 69.9526 63Z"/>
<path id="path17_fill" d="M 55.1614 51.624L 64.8454 51.624L 64.8454 54.612L 55.1614 54.612L 55.1614 51.624Z"/>
<path id="path18_fill" d="M 60.0619 58.284C 60.7339 58.284 61.2859 58.524 61.7179 59.004C 62.1739 59.46 62.4019 60.036 62.4019 60.732C 62.4019 61.092 62.3539 61.44 62.2579 61.776C 62.1859 62.112 62.0299 62.628 61.7899 63.324L 60.0979 68.328L 57.8299 68.328L 59.1619 62.964C 58.7059 62.796 58.3339 62.52 58.0459 62.136C 57.7819 61.728 57.6499 61.26 57.6499 60.732C 57.6499 60.012 57.8779 59.424 58.3339 58.968C 58.7899 58.512 59.3659 58.284 60.0619 58.284Z"/>
<path id="path19_fill" d="M 60.0259 63.216C 59.3539 63.216 58.7779 62.988 58.2979 62.532C 57.8179 62.052 57.5779 61.452 57.5779 60.732C 57.5779 60.036 57.8179 59.46 58.2979 59.004C 58.7779 58.524 59.3539 58.284 60.0259 58.284C 60.6979 58.284 61.2619 58.512 61.7179 58.968C 62.1739 59.424 62.4019 60.012 62.4019 60.732C 62.4019 61.452 62.1619 62.052 61.6819 62.532C 61.2259 62.988 60.6739 63.216 60.0259 63.216Z"/>
<path id="path20_fill" d="M 53.0925 37.8L 56.6925 37.8L 56.6925 59.868L 70.3365 59.868L 70.3365 63L 53.0925 63L 53.0925 37.8Z"/>
<path id="path21_fill" d="M 79.1164 37.8L 70.6924 63L 66.9124 63L 60.0364 42.876L 53.1604 63L 49.3084 63L 40.8844 37.8L 44.5924 37.8L 51.3964 58.284L 58.4884 37.8L 61.8004 37.8L 68.7484 58.392L 75.6964 37.8L 79.1164 37.8Z"/>
<path id="path22_fill" d="M 70.0094 59.868L 70.0094 63L 51.7214 63L 51.7214 37.8L 69.5054 37.8L 69.5054 40.932L 55.3214 40.932L 55.3214 48.672L 67.9574 48.672L 67.9574 51.732L 55.3214 51.732L 55.3214 59.868L 70.0094 59.868Z"/>
<path id="path23_fill" d="M 67.5499 63L 62.1139 55.26C 61.4419 55.308 60.9139 55.332 60.5299 55.332L 54.3019 55.332L 54.3019 63L 50.7019 63L 50.7019 37.8L 60.5299 37.8C 63.7939 37.8 66.3619 38.58 68.2339 40.14C 70.1059 41.7 71.0419 43.848 71.0419 46.584C 71.0419 48.528 70.5619 50.184 69.6019 51.552C 68.6419 52.92 67.2739 53.916 65.4979 54.54L 71.4739 63L 67.5499 63ZM 60.4219 52.272C 62.7019 52.272 64.4419 51.78 65.6419 50.796C 66.8419 49.812 67.4419 48.408 67.4419 46.584C 67.4419 44.76 66.8419 43.368 65.6419 42.408C 64.4419 41.424 62.7019 40.932 60.4219 40.932L 54.3019 40.932L 54.3019 52.272L 60.4219 52.272Z"/>
<path id="path24_fill" d="M 58.2195 40.932L 49.5795 40.932L 49.5795 37.8L 70.4235 37.8L 70.4235 40.932L 61.7835 40.932L 61.7835 63L 58.2195 63L 58.2195 40.932Z"/>
<path id="path25_fill" d="M 61.7737 54.288L 61.7737 63L 58.2097 63L 58.2097 54.216L 48.2017 37.8L 52.0537 37.8L 60.1177 51.084L 68.2177 37.8L 71.7817 37.8L 61.7737 54.288Z"/>
<path id="path26_fill" d="M 59.9817 63.288C 56.6217 63.288 54.0057 62.328 52.1337 60.408C 50.2617 58.488 49.3257 55.728 49.3257 52.128L 49.3257 37.8L 52.9257 37.8L 52.9257 51.984C 52.9257 57.384 55.2897 60.084 60.0177 60.084C 62.3217 60.084 64.0857 59.424 65.3097 58.104C 66.5337 56.76 67.1457 54.72 67.1457 51.984L 67.1457 37.8L 70.6377 37.8L 70.6377 52.128C 70.6377 55.752 69.7017 58.524 67.8297 60.444C 65.9577 62.34 63.3417 63.288 59.9817 63.288Z"/>
<path id="path27_fill" d="M 58.2077 37.8L 61.8077 37.8L 61.8077 63L 58.2077 63L 58.2077 37.8Z"/>
<path id="path28_fill" d="M 60.0388 63.288C 57.4948 63.288 55.2028 62.736 53.1628 61.632C 51.1228 60.504 49.5148 58.956 48.3388 56.988C 47.1868 55.02 46.6108 52.824 46.6108 50.4C 46.6108 47.976 47.1868 45.78 48.3388 43.812C 49.5148 41.844 51.1228 40.308 53.1628 39.204C 55.2028 38.076 57.4948 37.512 60.0388 37.512C 62.5588 37.512 64.8388 38.076 66.8788 39.204C 68.9188 40.308 70.5148 41.844 71.6668 43.812C 72.8188 45.756 73.3948 47.952 73.3948 50.4C 73.3948 52.848 72.8188 55.056 71.6668 57.024C 70.5148 58.968 68.9188 60.504 66.8788 61.632C 64.8388 62.736 62.5588 63.288 60.0388 63.288ZM 60.0388 60.084C 61.8868 60.084 63.5428 59.664 65.0068 58.824C 66.4948 57.984 67.6588 56.832 68.4988 55.368C 69.3628 53.88 69.7948 52.224 69.7948 50.4C 69.7948 48.576 69.3628 46.932 68.4988 45.468C 67.6588 43.98 66.4948 42.816 65.0068 41.976C 63.5428 41.136 61.8868 40.716 60.0388 40.716C 58.1908 40.716 56.5108 41.136 54.9988 41.976C 53.5108 42.816 52.3348 43.98 51.4708 45.468C 50.6308 46.932 50.2108 48.576 50.2108 50.4C 50.2108 52.224 50.6308 53.88 51.4708 55.368C 52.3348 56.832 53.5108 57.984 54.9988 58.824C 56.5108 59.664 58.1908 60.084 60.0388 60.084Z"/>
<path id="path29_fill" d="M 60.6178 37.8C 63.8818 37.8 66.4498 38.58 68.3218 40.14C 70.1938 41.7 71.1298 43.848 71.1298 46.584C 71.1298 49.32 70.1938 51.468 68.3218 53.028C 66.4498 54.588 63.8818 55.368 60.6178 55.368L 54.3898 55.368L 54.3898 63L 50.7898 63L 50.7898 37.8L 60.6178 37.8ZM 60.5098 52.236C 62.7898 52.236 64.5298 51.756 65.7298 50.796C 66.9298 49.812 67.5298 48.408 67.5298 46.584C 67.5298 44.76 66.9298 43.368 65.7298 42.408C 64.5298 41.424 62.7898 40.932 60.5098 40.932L 54.3898 40.932L 54.3898 52.236L 60.5098 52.236Z"/>
<path id="path30_fill" d="M 61.0752 48.384C 63.5472 48.624 65.4312 49.392 66.7272 50.688C 68.0232 51.96 68.6712 53.592 68.6712 55.584C 68.6712 57.024 68.3112 58.332 67.5912 59.508C 66.8712 60.66 65.7912 61.584 64.3512 62.28C 62.9352 62.952 61.1952 63.288 59.1312 63.288C 57.3312 63.288 55.6032 63.024 53.9472 62.496C 52.2912 61.944 50.9352 61.188 49.8792 60.228L 51.5352 57.384C 52.3992 58.2 53.5032 58.86 54.8472 59.364C 56.1912 59.844 57.6192 60.084 59.1312 60.084C 61.0032 60.084 62.4552 59.688 63.4872 58.896C 64.5432 58.104 65.0712 57.012 65.0712 55.62C 65.0712 54.228 64.5552 53.148 63.5232 52.38C 62.4912 51.612 60.9312 51.228 58.8432 51.228L 56.8272 51.228L 56.8272 48.708L 63.1632 40.932L 51.0312 40.932L 51.0312 37.8L 67.6632 37.8L 67.6632 40.248L 61.0752 48.384Z"/>
<path id="path31_fill" d="M 69.1041 59.868L 69.1041 63L 50.9961 63L 50.9961 60.552L 61.2561 50.652C 62.5041 49.452 63.3441 48.42 63.7761 47.556C 64.2081 46.668 64.4241 45.78 64.4241 44.892C 64.4241 43.572 63.9561 42.552 63.0201 41.832C 62.1081 41.088 60.7881 40.716 59.0601 40.716C 56.2761 40.716 54.1281 41.628 52.6161 43.452L 50.1681 41.328C 51.1521 40.128 52.4361 39.192 54.0201 38.52C 55.6281 37.848 57.4161 37.512 59.3841 37.512C 62.0241 37.512 64.1241 38.148 65.6841 39.42C 67.2441 40.668 68.0241 42.372 68.0241 44.532C 68.0241 45.876 67.7361 47.148 67.1601 48.348C 66.5841 49.548 65.4921 50.916 63.8841 52.452L 56.1801 59.868L 69.1041 59.868Z"/>
<path id="path32_fill" d="M 62.8779 37.8L 62.8779 63L 59.3139 63L 59.3139 40.932L 53.6259 40.932L 53.6259 37.8L 62.8779 37.8Z"/>
<path id="path33_fill" d="M 61.4906 47.7C 63.1466 47.7 64.6226 48.012 65.9186 48.636C 67.2386 49.26 68.2706 50.16 69.0146 51.336C 69.7586 52.488 70.1306 53.82 70.1306 55.332C 70.1306 56.916 69.7346 58.308 68.9426 59.508C 68.1746 60.708 67.1066 61.644 65.7386 62.316C 64.3946 62.964 62.8826 63.288 61.2026 63.288C 57.8186 63.288 55.2026 62.196 53.3546 60.012C 51.5306 57.828 50.6186 54.732 50.6186 50.724C 50.6186 47.916 51.1106 45.528 52.0946 43.56C 53.1026 41.568 54.4946 40.068 56.2706 39.06C 58.0706 38.028 60.1586 37.512 62.5346 37.512C 63.7586 37.512 64.9106 37.644 65.9906 37.908C 67.0706 38.148 68.0066 38.508 68.7986 38.988L 67.4306 41.796C 66.2306 41.004 64.6226 40.608 62.6066 40.608C 59.9906 40.608 57.9386 41.424 56.4506 43.056C 54.9626 44.664 54.2186 47.016 54.2186 50.112C 54.2186 50.496 54.2306 50.796 54.2546 51.012C 54.9746 49.932 55.9586 49.116 57.2066 48.564C 58.4786 47.988 59.9066 47.7 61.4906 47.7ZM 61.0586 60.372C 62.7146 60.372 64.0586 59.928 65.0906 59.04C 66.1226 58.152 66.6386 56.964 66.6386 55.476C 66.6386 53.988 66.1106 52.812 65.0546 51.948C 64.0226 51.06 62.6306 50.616 60.8786 50.616C 59.7506 50.616 58.7426 50.832 57.8546 51.264C 56.9906 51.696 56.3066 52.284 55.8026 53.028C 55.3226 53.772 55.0826 54.6 55.0826 55.512C 55.0826 56.4 55.3106 57.216 55.7666 57.96C 56.2466 58.68 56.9306 59.268 57.8186 59.724C 58.7306 60.156 59.8106 60.372 61.0586 60.372Z"/>
<path id="path34_fill" d="M 58.5921 47.844C 62.1921 47.844 64.8321 48.528 66.5121 49.896C 68.2161 51.24 69.0681 53.088 69.0681 55.44C 69.0681 56.928 68.7081 58.272 67.9881 59.472C 67.2921 60.648 66.2241 61.584 64.7841 62.28C 63.3681 62.952 61.6161 63.288 59.5281 63.288C 57.7521 63.288 56.0361 63.024 54.3801 62.496C 52.7241 61.944 51.3561 61.188 50.2761 60.228L 51.9321 57.384C 52.7961 58.2 53.9001 58.86 55.2441 59.364C 56.5881 59.844 58.0041 60.084 59.4921 60.084C 61.3881 60.084 62.8521 59.688 63.8841 58.896C 64.9401 58.08 65.4681 56.976 65.4681 55.584C 65.4681 54.072 64.8921 52.932 63.7401 52.164C 62.5881 51.372 60.6201 50.976 57.8361 50.976L 52.1121 50.976L 53.4441 37.8L 67.6641 37.8L 67.6641 40.932L 56.4681 40.932L 55.7841 47.844L 58.5921 47.844Z"/>
<path id="path35_fill" d="M 71.611 56.808L 66.823 56.808L 66.823 63L 63.331 63L 63.331 56.808L 49.327 56.808L 49.327 54.288L 62.215 37.8L 66.103 37.8L 53.755 53.712L 63.439 53.712L 63.439 48.24L 66.823 48.24L 66.823 53.712L 71.611 53.712L 71.611 56.808Z"/>
<path id="path36_fill" d="M 58.7906 37.512C 62.1746 37.512 64.7786 38.604 66.6026 40.788C 68.4506 42.972 69.3746 46.068 69.3746 50.076C 69.3746 52.884 68.8706 55.284 67.8626 57.276C 66.8786 59.244 65.4866 60.744 63.6866 61.776C 61.9106 62.784 59.8346 63.288 57.4586 63.288C 56.2346 63.288 55.0826 63.168 54.0026 62.928C 52.9226 62.664 51.9866 62.292 51.1946 61.812L 52.5626 59.004C 53.7866 59.796 55.4066 60.192 57.4226 60.192C 60.0386 60.192 62.0786 59.388 63.5426 57.78C 65.0306 56.148 65.7746 53.784 65.7746 50.688L 65.7746 49.788C 65.0546 50.868 64.0586 51.696 62.7866 52.272C 61.5146 52.824 60.0866 53.1 58.5026 53.1C 56.8466 53.1 55.3586 52.788 54.0386 52.164C 52.7426 51.54 51.7226 50.652 50.9786 49.5C 50.2586 48.324 49.8986 46.98 49.8986 45.468C 49.8986 43.884 50.2826 42.492 51.0506 41.292C 51.8426 40.092 52.9106 39.168 54.2546 38.52C 55.5986 37.848 57.1106 37.512 58.7906 37.512ZM 59.1146 50.184C 60.2426 50.184 61.2506 49.968 62.1386 49.536C 63.0266 49.104 63.7106 48.516 64.1906 47.772C 64.6946 47.028 64.9466 46.2 64.9466 45.288C 64.9466 44.4 64.7066 43.596 64.2266 42.876C 63.7706 42.132 63.0866 41.544 62.1746 41.112C 61.2866 40.656 60.2066 40.428 58.9346 40.428C 57.2786 40.428 55.9346 40.872 54.9026 41.76C 53.8946 42.648 53.3906 43.836 53.3906 45.324C 53.3906 46.812 53.9066 48 54.9386 48.888C 55.9706 49.752 57.3626 50.184 59.1146 50.184Z"/>
<path id="path37_fill" d="M 65.552 49.788C 66.992 50.34 68.096 51.132 68.864 52.164C 69.632 53.196 70.016 54.432 70.016 55.872C 70.016 57.384 69.608 58.704 68.792 59.832C 67.976 60.936 66.812 61.788 65.3 62.388C 63.788 62.988 62.012 63.288 59.972 63.288C 57.956 63.288 56.192 62.988 54.68 62.388C 53.192 61.788 52.04 60.936 51.224 59.832C 50.408 58.704 50 57.384 50 55.872C 50 54.432 50.372 53.196 51.116 52.164C 51.884 51.132 52.988 50.34 54.428 49.788C 53.276 49.236 52.4 48.504 51.8 47.592C 51.2 46.68 50.9 45.6 50.9 44.352C 50.9 42.96 51.272 41.748 52.016 40.716C 52.784 39.684 53.852 38.892 55.22 38.34C 56.588 37.788 58.172 37.512 59.972 37.512C 61.796 37.512 63.392 37.788 64.76 38.34C 66.152 38.892 67.22 39.684 67.964 40.716C 68.732 41.748 69.116 42.96 69.116 44.352C 69.116 45.576 68.804 46.656 68.18 47.592C 67.58 48.504 66.704 49.236 65.552 49.788ZM 59.972 40.428C 58.268 40.428 56.924 40.8 55.94 41.544C 54.956 42.264 54.464 43.248 54.464 44.496C 54.464 45.744 54.944 46.728 55.904 47.448C 56.888 48.168 58.244 48.528 59.972 48.528C 61.724 48.528 63.092 48.168 64.076 47.448C 65.084 46.728 65.588 45.744 65.588 44.496C 65.588 43.248 65.072 42.264 64.04 41.544C 63.032 40.8 61.676 40.428 59.972 40.428ZM 59.972 60.372C 61.964 60.372 63.536 59.964 64.688 59.148C 65.84 58.308 66.416 57.18 66.416 55.764C 66.416 54.372 65.84 53.28 64.688 52.488C 63.536 51.672 61.964 51.264 59.972 51.264C 57.98 51.264 56.42 51.672 55.292 52.488C 54.164 53.28 53.6 54.372 53.6 55.764C 53.6 57.18 54.164 58.308 55.292 59.148C 56.42 59.964 57.98 60.372 59.972 60.372Z"/>
<path id="path38_fill" d="M 69.3302 37.8L 69.3302 40.248L 59.1422 63L 55.3262 63L 65.2982 40.932L 53.7782 40.932L 53.7782 45.432L 50.3222 45.432L 50.3222 37.8L 69.3302 37.8Z"/>
<path id="path39_fill" d="M 60.0181 63.288C 58.0261 63.288 56.2501 62.784 54.6901 61.776C 53.1541 60.744 51.9421 59.256 51.0541 57.312C 50.1661 55.368 49.7221 53.064 49.7221 50.4C 49.7221 47.736 50.1661 45.432 51.0541 43.488C 51.9421 41.544 53.1541 40.068 54.6901 39.06C 56.2501 38.028 58.0261 37.512 60.0181 37.512C 61.9861 37.512 63.7381 38.028 65.2741 39.06C 66.8341 40.068 68.0581 41.544 68.9461 43.488C 69.8341 45.432 70.2781 47.736 70.2781 50.4C 70.2781 53.064 69.8341 55.368 68.9461 57.312C 68.0581 59.256 66.8341 60.744 65.2741 61.776C 63.7381 62.784 61.9861 63.288 60.0181 63.288ZM 60.0181 60.084C 62.0341 60.084 63.6421 59.256 64.8421 57.6C 66.0661 55.944 66.6781 53.544 66.6781 50.4C 66.6781 47.256 66.0661 44.856 64.8421 43.2C 63.6421 41.544 62.0341 40.716 60.0181 40.716C 57.9781 40.716 56.3461 41.544 55.1221 43.2C 53.9221 44.856 53.3221 47.256 53.3221 50.4C 53.3221 53.544 53.9221 55.944 55.1221 57.6C 56.3461 59.256 57.9781 60.084 60.0181 60.084Z"/>
<path id="path40_fill" d="M 0 30C 0 13.4315 13.4315 0 30 0L 190 0C 206.569 0 220 13.4315 220 30C 220 46.5685 206.569 60 190 60L 30 60C 13.4315 60 0 46.5685 0 30Z"/>
<path id="path41_fill" d="M 74.2809 13.76C 74.2809 13.9067 74.2675 14.1 74.2409 14.34L 65.6409 14.34C 65.7609 15.2733 66.1675 16.0267 66.8609 16.6C 67.5675 17.16 68.4409 17.44 69.4809 17.44C 70.7475 17.44 71.7675 17.0133 72.5409 16.16L 73.6009 17.4C 73.1209 17.96 72.5209 18.3867 71.8009 18.68C 71.0942 18.9733 70.3009 19.12 69.4209 19.12C 68.3009 19.12 67.3075 18.8933 66.4409 18.44C 65.5742 17.9733 64.9009 17.3267 64.4209 16.5C 63.9542 15.6733 63.7209 14.74 63.7209 13.7C 63.7209 12.6733 63.9475 11.7467 64.4009 10.92C 64.8675 10.0933 65.5009 9.45333 66.3009 9C 67.1142 8.53333 68.0275 8.3 69.0409 8.3C 70.0542 8.3 70.9542 8.53333 71.7409 9C 72.5409 9.45333 73.1609 10.0933 73.6009 10.92C 74.0542 11.7467 74.2809 12.6933 74.2809 13.76ZM 69.0409 9.92C 68.1209 9.92 67.3475 10.2 66.7209 10.76C 66.1075 11.32 65.7475 12.0533 65.6409 12.96L 72.4409 12.96C 72.3342 12.0667 71.9675 11.34 71.3409 10.78C 70.7275 10.2067 69.9609 9.92 69.0409 9.92ZM 82.607 8.3C 83.9536 8.3 85.0203 8.69333 85.807 9.48C 86.607 10.2533 87.007 11.3933 87.007 12.9L 87.007 19L 85.087 19L 85.087 13.12C 85.087 12.0933 84.8403 11.32 84.347 10.8C 83.8536 10.28 83.147 10.02 82.227 10.02C 81.187 10.02 80.367 10.3267 79.767 10.94C 79.167 11.54 78.867 12.4067 78.867 13.54L 78.867 19L 76.947 19L 76.947 8.4L 78.787 8.4L 78.787 10C 79.1736 9.45333 79.6936 9.03333 80.347 8.74C 81.0136 8.44667 81.767 8.3 82.607 8.3ZM 96.5202 18.38C 96.2402 18.62 95.8936 18.8067 95.4802 18.94C 95.0669 19.06 94.6402 19.12 94.2002 19.12C 93.1336 19.12 92.3069 18.8333 91.7202 18.26C 91.1336 17.6867 90.8402 16.8667 90.8402 15.8L 90.8402 9.98L 89.0402 9.98L 89.0402 8.4L 90.8402 8.4L 90.8402 6.08L 92.7602 6.08L 92.7602 8.4L 95.8002 8.4L 95.8002 9.98L 92.7602 9.98L 92.7602 15.72C 92.7602 16.2933 92.9002 16.7333 93.1802 17.04C 93.4736 17.3467 93.8869 17.5 94.4202 17.5C 95.0069 17.5 95.5069 17.3333 95.9202 17L 96.5202 18.38ZM 108.07 13.76C 108.07 13.9067 108.057 14.1 108.03 14.34L 99.4299 14.34C 99.5499 15.2733 99.9566 16.0267 100.65 16.6C 101.357 17.16 102.23 17.44 103.27 17.44C 104.537 17.44 105.557 17.0133 106.33 16.16L 107.39 17.4C 106.91 17.96 106.31 18.3867 105.59 18.68C 104.883 18.9733 104.09 19.12 103.21 19.12C 102.09 19.12 101.097 18.8933 100.23 18.44C 99.3633 17.9733 98.6899 17.3267 98.2099 16.5C 97.7433 15.6733 97.5099 14.74 97.5099 13.7C 97.5099 12.6733 97.7366 11.7467 98.1899 10.92C 98.6566 10.0933 99.2899 9.45333 100.09 9C 100.903 8.53333 101.817 8.3 102.83 8.3C 103.843 8.3 104.743 8.53333 105.53 9C 106.33 9.45333 106.95 10.0933 107.39 10.92C 107.843 11.7467 108.07 12.6933 108.07 13.76ZM 102.83 9.92C 101.91 9.92 101.137 10.2 100.51 10.76C 99.8966 11.32 99.5366 12.0533 99.4299 12.96L 106.23 12.96C 106.123 12.0667 105.757 11.34 105.13 10.78C 104.517 10.2067 103.75 9.92 102.83 9.92ZM 112.576 10.18C 112.909 9.56667 113.403 9.1 114.056 8.78C 114.709 8.46 115.503 8.3 116.436 8.3L 116.436 10.16C 116.329 10.1467 116.183 10.14 115.996 10.14C 114.956 10.14 114.136 10.4533 113.536 11.08C 112.949 11.6933 112.656 12.5733 112.656 13.72L 112.656 19L 110.736 19L 110.736 8.4L 112.576 8.4L 112.576 10.18Z"/>
<path id="path42_fill" d="M 0 30C 0 13.4315 13.4315 0 30 0L 130 0C 146.569 0 160 13.4315 160 30C 160 46.5685 146.569 60 130 60L 30 60C 13.4315 60 0 46.5685 0 30Z"/>
<path id="path43_fill" d="M 52.9367 9.26L 45.8367 12L 52.9367 14.74L 52.9367 16.4L 43.9767 12.86L 43.9767 11.14L 52.9367 7.6L 52.9367 9.26ZM 55.4173 12.68L 60.7973 12.68L 60.7973 14.34L 55.4173 14.34L 55.4173 12.68ZM 63.1322 12.68L 68.5122 12.68L 68.5122 14.34L 63.1322 14.34L 63.1322 12.68ZM 70.847 12.68L 76.227 12.68L 76.227 14.34L 70.847 14.34L 70.847 12.68Z"/>
<path id="path44_fill" d="M 0 30C 0 13.4315 13.4315 0 30 0L 77 0C 93.5685 0 107 13.4315 107 30C 107 46.5685 93.5685 60 77 60L 30 60C 13.4315 60 0 46.5685 0 30Z"/>
<path id="path45_fill" d="M 37.9797 11.14L 37.9797 12.86L 29.0197 16.4L 29.0197 14.74L 36.1397 12L 29.0197 9.26L 29.0197 7.6L 37.9797 11.14Z"/>
<path id="path46_fill" d="M 37.9797 9.26L 30.8797 12L 37.9797 14.74L 37.9797 16.4L 29.0197 12.86L 29.0197 11.14L 37.9797 7.6L 37.9797 9.26Z"/>
<path id="path47_fill" d="M 0 30C 0 13.4315 13.4315 0 30 0L 140 0C 156.569 0 170 13.4315 170 30C 170 46.5685 156.569 60 140 60L 30 60C 13.4315 60 0 46.5685 0 30Z"/>
<path id="path48_fill" d="M 49.9409 14.58C 49.9409 14.0467 50.0275 13.58 50.2009 13.18C 50.3875 12.7667 50.6075 12.42 50.8609 12.14C 51.1275 11.86 51.4742 11.5267 51.9009 11.14C 52.4342 10.6733 52.8275 10.2733 53.0809 9.94C 53.3342 9.59333 53.4609 9.18 53.4609 8.7C 53.4609 8.04667 53.2075 7.52667 52.7009 7.14C 52.1942 6.74 51.4942 6.54 50.6009 6.54C 49.0409 6.54 47.8475 7.06667 47.0209 8.12L 45.5609 7.08C 46.1209 6.36 46.8342 5.80667 47.7009 5.42C 48.5809 5.03333 49.5942 4.84 50.7409 4.84C 52.1942 4.84 53.3475 5.16 54.2009 5.8C 55.0542 6.42667 55.4809 7.29333 55.4809 8.4C 55.4809 8.94667 55.3875 9.43333 55.2009 9.86C 55.0275 10.2733 54.8142 10.62 54.5609 10.9C 54.3075 11.18 53.9675 11.5133 53.5409 11.9C 52.9942 12.3933 52.5875 12.8267 52.3209 13.2C 52.0675 13.5733 51.9409 14.0333 51.9409 14.58L 49.9409 14.58ZM 50.9609 19.12C 50.5875 19.12 50.2742 19 50.0209 18.76C 49.7809 18.5067 49.6609 18.2 49.6609 17.84C 49.6609 17.48 49.7809 17.18 50.0209 16.94C 50.2742 16.6867 50.5875 16.56 50.9609 16.56C 51.3342 16.56 51.6409 16.6867 51.8809 16.94C 52.1209 17.18 52.2409 17.48 52.2409 17.84C 52.2409 18.2 52.1142 18.5067 51.8609 18.76C 51.6209 19 51.3209 19.12 50.9609 19.12ZM 67.4257 10.06L 66.9457 13.94L 69.7257 13.94L 69.7257 15.4L 66.7657 15.4L 66.3257 19L 64.9057 19L 65.3457 15.4L 61.5657 15.4L 61.1257 19L 59.7057 19L 60.1457 15.4L 57.3857 15.4L 57.3857 13.94L 60.3257 13.94L 60.8257 10.06L 58.0257 10.06L 58.0257 8.6L 61.0057 8.6L 61.4457 5L 62.8657 5L 62.4257 8.6L 66.1857 8.6L 66.6257 5L 68.0457 5L 67.6057 8.6L 70.3657 8.6L 70.3657 10.06L 67.4257 10.06ZM 66.0057 10.06L 62.2457 10.06L 61.7457 13.94L 65.5257 13.94L 66.0057 10.06ZM 83.2482 19.22L 81.3882 17.36C 80.1482 18.56 78.5882 19.16 76.7082 19.16C 75.7749 19.16 74.9349 19.0067 74.1882 18.7C 73.4415 18.3933 72.8549 17.9667 72.4282 17.42C 72.0149 16.86 71.8082 16.2267 71.8082 15.52C 71.8082 14.6667 72.0682 13.9133 72.5882 13.26C 73.1215 12.5933 73.9949 11.9133 75.2082 11.22C 74.5949 10.6067 74.1615 10.0533 73.9082 9.56C 73.6549 9.06667 73.5282 8.55333 73.5282 8.02C 73.5282 7.07333 73.8682 6.31333 74.5482 5.74C 75.2415 5.16667 76.1615 4.88 77.3082 4.88C 78.3749 4.88 79.2215 5.14 79.8482 5.66C 80.4749 6.18 80.7882 6.89333 80.7882 7.8C 80.7882 8.50667 80.5549 9.14 80.0882 9.7C 79.6349 10.26 78.8749 10.8467 77.8082 11.46L 81.2682 14.9C 81.6682 14.14 81.9549 13.2933 82.1282 12.36L 83.6682 12.86C 83.4282 14.0867 83.0215 15.1533 82.4482 16.06L 84.3282 17.94L 83.2482 19.22ZM 77.3082 6.28C 76.6815 6.28 76.1882 6.44 75.8282 6.76C 75.4815 7.06667 75.3082 7.47333 75.3082 7.98C 75.3082 8.34 75.4015 8.68667 75.5882 9.02C 75.7882 9.35333 76.1682 9.80667 76.7282 10.38C 77.6482 9.86 78.2815 9.41333 78.6282 9.04C 78.9882 8.66667 79.1682 8.26 79.1682 7.82C 79.1682 7.35333 79.0015 6.98 78.6682 6.7C 78.3482 6.42 77.8949 6.28 77.3082 6.28ZM 76.8282 17.56C 78.2149 17.56 79.3549 17.12 80.2482 16.24L 76.2682 12.28C 75.3082 12.8133 74.6349 13.3133 74.2482 13.78C 73.8749 14.2333 73.6882 14.7467 73.6882 15.32C 73.6882 15.9867 73.9749 16.5267 74.5482 16.94C 75.1349 17.3533 75.8949 17.56 76.8282 17.56Z"/>
<path id="path49_fill" d="M 0 30C 0 13.4315 13.4315 0 30 0L 150 0C 166.569 0 180 13.4315 180 30C 180 46.5685 166.569 60 150 60L 30 60C 13.4315 60 0 46.5685 0 30Z"/>
<path id="path50_fill" d="M 72.7899 16.16L 70.0099 9.42L 67.2099 16.16L 65.6699 16.16L 69.2099 7.84L 70.8099 7.84L 74.3299 16.16L 72.7899 16.16Z"/>
<path id="path51_fill" d="M 0 30C 0 13.4315 13.4315 0 30 0L 722 0C 738.569 0 752 13.4315 752 30C 752 46.5685 738.569 60 722 60L 30 60C 13.4315 60 0 46.5685 0 30Z"/>
</defs>
</svg>
