<svg width="1340" height="60" viewBox="0 0 1340 60" version="1.1" xmlns="http://www.w3.org/2000/svg" xmlns:xlink="http://www.w3.org/1999/xlink">
<title>status bar</title>
<desc>Created using Figma</desc>
<g id="Canvas" transform="translate(6760 -5017)">
<clipPath id="clip-0" clip-rule="evenodd">
<path d="M -6760 5017L -5420 5017L -5420 5077L -6760 5077L -6760 5017Z" fill="#FFFFFF"/>
</clipPath>
<g id="status bar" clip-path="url(#clip-0)">
<g id="Light">
<g id="Dark">
<use xlink:href="#path0_fill" transform="translate(-6760 5017)" fill="url(#paint0_linear)"/>
</g>
<clipPath id="clip-1" clip-rule="evenodd">
<path d="M -6740 5027L -6692 5027L -6692 5075L -6740 5075L -6740 5027Z" fill="#FFFFFF"/>
</clipPath>
<g id="lock" clip-path="url(#clip-1)">
<g id="Union">
<use xlink:href="#path1_fill" transform="translate(-6726 5037)"/>
</g>
</g>
<clipPath id="clip-2" clip-rule="evenodd">
<path d="M -6680 5027L -6632 5027L -6632 5075L -6680 5075L -6680 5027Z" fill="#FFFFFF"/>
</clipPath>
<g id="bluetooth" clip-path="url(#clip-2)">
<g id="Subtract">
<use xlink:href="#path2_fill" transform="translate(-6665 5037)"/>
</g>
</g>
<clipPath id="clip-3" clip-rule="evenodd">
<path d="M -6620 5027L -6572 5027L -6572 5075L -6620 5075L -6620 5027Z" fill="#FFFFFF"/>
</clipPath>
<g id="cell signal" clip-path="url(#clip-3)">
<g id="Union">
<use xlink:href="#path3_fill" transform="translate(-6617 5037.5)"/>
</g>
</g>
<clipPath id="clip-4" clip-rule="evenodd">
<path d="M -6500 5027L -6452 5027L -6452 5075L -6500 5075L -6500 5027Z" fill="#FFFFFF"/>
</clipPath>
<g id="alert" clip-path="url(#clip-4)">
<g id="Group">
<g id="Rectangle 14">
<use xlink:href="#path4_fill" transform="translate(-6494 5035)" fill="#E82127"/>
</g>
<g id="Vector 31">
<use xlink:href="#path5_fill" transform="translate(-6478 5042)" fill="#FFFFFF"/>
<use xlink:href="#path6_fill" transform="translate(-6478 5042)" fill="#FFFFFF"/>
</g>
</g>
</g>
<g id="Tesla Logo">
<g id="Tesla Logo">
<use xlink:href="#path7_fill" transform="matrix(-1 0 0 1 -6395 5032)"/>
</g>
</g>
<g id="Clock">
<use xlink:href="#path8_fill" transform="translate(-5570 5039)"/>
</g>
<g id="Temp">
<use xlink:href="#path9_fill" transform="translate(-5720 5039)"/>
</g>
</g>
</g>
</g>
<defs>
<linearGradient id="paint0_linear" x1="0" y1="0" x2="1" y2="0" gradientUnits="userSpaceOnUse" gradientTransform="matrix(8.20513e-14 60 -1340 3.67394e-15 1340 -3.67394e-15)">
<stop offset="0" stop-color="#FFFFFF" stop-opacity="0.6"/>
<stop offset="1" stop-color="#FFFFFF" stop-opacity="0"/>
</linearGradient>
<path id="path0_fill" d="M 0 0L 1340 0L 1340 60L 0 60L 0 0Z"/>
<path id="path1_fill" fill-rule="evenodd" d="M 5 12L 15 12L 15 8C 15 5.23859 12.7617 3 10 3C 7.23828 3 5 5.23859 5 8L 5 12ZM 18 12C 19.1045 12 20 12.8954 20 14L 20 26C 20 27.1046 19.1045 28 18 28L 2 28C 0.895508 28 0 27.1046 0 26L 0 14C 0 12.8954 0.895508 12 2 12L 2 8C 2 3.58173 5.58203 0 10 0C 14.418 0 18 3.58173 18 8L 18 12Z"/>
<path id="path2_fill" fill-rule="evenodd" d="M 9 0C 4.0293 0 0 4.02942 0 9L 0 19C 0 23.9706 4.0293 28 9 28C 13.9707 28 18 23.9706 18 19L 18 9C 18 4.02942 13.9707 0 9 0ZM 8.63086 4.32483C 7.97754 3.79388 7 4.25891 7 5.10095L 7 12L 4.20703 9.20709C 3.81641 8.81659 3.18359 8.81659 2.79297 9.20709L 2.70703 9.29291C 2.31641 9.68341 2.31641 10.3166 2.70703 10.7071L 6 14L 2.70703 17.2929C 2.31641 17.6834 2.31641 18.3166 2.70703 18.7071L 2.79297 18.7929C 3.18359 19.1834 3.81641 19.1834 4.20703 18.7929L 7 16L 7 22.099C 7 22.9042 7.90332 23.3792 8.56641 22.923L 13.9551 19.2187C 14.4873 18.8523 14.5381 18.084 14.0566 17.6514L 10 14L 14.1309 10.2822C 14.5879 9.87134 14.5693 9.14996 14.0928 8.76276L 8.63086 4.32483ZM 10 8L 10 11.5L 12 9.5L 10 8ZM 10 20L 10 16.5L 12 18.5L 10 20Z"/>
<path id="path3_fill" fill-rule="evenodd" d="M 5.5 0L 8 0L 8 6L 9 6L 9 8L 8 8L 8 11L 6 11L 6 8L 0 8L 0 6L 5.5 0ZM 6 6L 6 3L 3 6L 6 6ZM 37 6C 37 5.44769 37.4473 5 38 5L 40 5C 40.5527 5 41 5.44769 41 6L 41 26C 41 26.5523 40.5527 27 40 27L 38 27C 37.4473 27 37 26.5523 37 26L 37 6ZM 31 9C 31 8.44769 31.4473 8 32 8L 34 8C 34.5527 8 35 8.44769 35 9L 35 26C 35 26.5523 34.5527 27 34 27L 32 27C 31.4473 27 31 26.5523 31 26L 31 9ZM 26 11C 25.4473 11 25 11.4477 25 12L 25 26C 25 26.5523 25.4473 27 26 27L 28 27C 28.5527 27 29 26.5523 29 26L 29 12C 29 11.4477 28.5527 11 28 11L 26 11ZM 19 15C 19 14.4477 19.4473 14 20 14L 22 14C 22.5527 14 23 14.4477 23 15L 23 26C 23 26.5523 22.5527 27 22 27L 20 27C 19.4473 27 19 26.5523 19 26L 19 15ZM 14 17C 13.4473 17 13 17.4477 13 18L 13 26C 13 26.5523 13.4473 27 14 27L 16 27C 16.5527 27 17 26.5523 17 26L 17 18C 17 17.4477 16.5527 17 16 17L 14 17ZM 19.5 3L 20.5 1.5C 20.5 1.5 19 0 16.5 0C 13 0 11 2.5 11 5.5C 11 8.5 13 11 16.5 11C 19.5 11 21 9 21 9L 21 5L 17 5L 17 7L 19 7L 19 8C 19 8 18.5 9 16.5 9C 14.5 9 13 7.5 13 5.5C 13 3.5 14.5 2 16.5 2C 18.4199 2 19.5 3 19.5 3Z"/>
<path id="path4_fill" d="M 0 10C 0 4.47715 4.47715 0 10 0L 26 0C 31.5228 0 36 4.47715 36 10L 36 22C 36 27.5228 31.5228 32 26 32L 10 32C 4.47715 32 0 27.5228 0 22L 0 10Z"/>
<path id="path5_fill" d="M 4 0L 1 0C 0.447715 0 0 0.447715 0 1L 0 2.90706C 0 2.96889 0.00573382 3.03058 0.0171278 3.09135L 1.34705 10.1843C 1.43574 10.6573 1.84871 11 2.32993 11L 2.67007 11C 3.15129 11 3.56426 10.6573 3.65295 10.1843L 4.98287 3.09135C 4.99427 3.03058 5 2.96889 5 2.90706L 5 1C 5 0.447715 4.55228 0 4 0Z"/>
<path id="path6_fill" d="M 4 13L 1 13C 0.447715 13 0 13.4477 0 14L 0 16C 0 16.5523 0.447715 17 1 17L 4 17C 4.55228 17 5 16.5523 5 16L 5 14C 5 13.4477 4.55228 13 4 13Z"/>
<path id="path7_fill" fill-rule="evenodd" d="M 38.8789 6.23743C 32.209 3.31769 25.6924 2.38953 20 2.43323C 14.3066 2.38953 7.78906 3.31769 1.12012 6.23743C 0.325195 4.79095 0 3.91364 0 3.91364C 7.29102 1.01654 14.1191 0.0248413 19.999 0C 25.8799 0.0248413 32.708 1.01636 40 3.91364C 40 3.91364 39.7705 4.62585 38.8789 6.23743ZM 25.5986 8.39331L 20.002 40L 14.3613 8.38867C 9.06348 8.39252 7.38281 8.97992 7.13867 11.3776C 7.13867 11.3776 3.55859 10.0378 1.75586 7.31653C 8.79688 4.03925 15.873 3.8913 15.873 3.8913L 19.9932 8.94269L 24.1221 3.89209C 24.1221 3.89209 31.1982 4.03992 38.2402 7.3172C 36.4355 10.0384 32.8574 11.3783 32.8574 11.3783C 32.6152 8.98065 30.9326 8.39331 25.5986 8.39331Z"/>
<path id="path8_fill" d="M 22.0187 6L 22.0187 20L 20.0387 20L 20.0387 7.74L 16.8788 7.74L 16.8788 6L 22.0187 6ZM 30.8011 20.16C 29.6944 20.16 28.7078 19.88 27.8411 19.32C 26.9878 18.7467 26.3144 17.92 25.8211 16.84C 25.3278 15.76 25.0811 14.48 25.0811 13C 25.0811 11.52 25.3278 10.24 25.8211 9.16C 26.3144 8.08 26.9878 7.26 27.8411 6.7C 28.7078 6.12667 29.6944 5.84 30.8011 5.84C 31.8944 5.84 32.8678 6.12667 33.7211 6.7C 34.5878 7.26 35.2678 8.08 35.7611 9.16C 36.2544 10.24 36.5011 11.52 36.5011 13C 36.5011 14.48 36.2544 15.76 35.7611 16.84C 35.2678 17.92 34.5878 18.7467 33.7211 19.32C 32.8678 19.88 31.8944 20.16 30.8011 20.16ZM 30.8011 18.38C 31.9211 18.38 32.8144 17.92 33.4811 17C 34.1611 16.08 34.5011 14.7467 34.5011 13C 34.5011 11.2533 34.1611 9.92 33.4811 9C 32.8144 8.08 31.9211 7.62 30.8011 7.62C 29.6678 7.62 28.7611 8.08 28.0811 9C 27.4144 9.92 27.0811 11.2533 27.0811 13C 27.0811 14.7467 27.4144 16.08 28.0811 17C 28.7611 17.92 29.6678 18.38 30.8011 18.38ZM 39.7409 12.04C 39.3676 12.04 39.0476 11.9133 38.7809 11.66C 38.5143 11.3933 38.3809 11.06 38.3809 10.66C 38.3809 10.2733 38.5143 9.95333 38.7809 9.7C 39.0476 9.43333 39.3676 9.3 39.7409 9.3C 40.1143 9.3 40.4276 9.42667 40.6809 9.68C 40.9343 9.93333 41.0609 10.26 41.0609 10.66C 41.0609 11.06 40.9276 11.3933 40.6609 11.66C 40.4076 11.9133 40.1009 12.04 39.7409 12.04ZM 39.7409 20.12C 39.3676 20.12 39.0476 19.9933 38.7809 19.74C 38.5143 19.4733 38.3809 19.14 38.3809 18.74C 38.3809 18.3533 38.5143 18.0333 38.7809 17.78C 39.0476 17.5133 39.3676 17.38 39.7409 17.38C 40.1143 17.38 40.4276 17.5067 40.6809 17.76C 40.9343 18.0133 41.0609 18.34 41.0609 18.74C 41.0609 19.14 40.9276 19.4733 40.6609 19.74C 40.4076 19.9933 40.1009 20.12 39.7409 20.12ZM 52.7922 18.26L 52.7922 20L 42.7322 20L 42.7322 18.64L 48.4322 13.14C 49.1255 12.4733 49.5922 11.9 49.8322 11.42C 50.0722 10.9267 50.1922 10.4333 50.1922 9.94C 50.1922 9.20667 49.9322 8.64 49.4122 8.24C 48.9055 7.82667 48.1722 7.62 47.2122 7.62C 45.6655 7.62 44.4722 8.12667 43.6322 9.14L 42.2722 7.96C 42.8189 7.29333 43.5322 6.77333 44.4122 6.4C 45.3055 6.02667 46.2989 5.84 47.3922 5.84C 48.8589 5.84 50.0255 6.19333 50.8922 6.9C 51.7589 7.59333 52.1922 8.54 52.1922 9.74C 52.1922 10.4867 52.0322 11.1933 51.7122 11.86C 51.3922 12.5267 50.7855 13.2867 49.8922 14.14L 45.6122 18.26L 52.7922 18.26ZM 58.7766 6L 58.7766 20L 56.7966 20L 56.7966 7.74L 53.6366 7.74L 53.6366 6L 58.7766 6ZM 77.27 16.5L 69.83 16.5L 68.29 20L 66.23 20L 72.57 6L 74.55 6L 80.91 20L 78.81 20L 77.27 16.5ZM 76.57 14.9L 73.55 8.04L 70.53 14.9L 76.57 14.9ZM 95.9784 20L 95.9584 9.8L 90.8984 18.3L 89.9784 18.3L 84.9184 9.86L 84.9184 20L 82.9984 20L 82.9984 6L 84.6384 6L 90.4784 15.84L 96.2384 6L 97.8784 6L 97.8984 20L 95.9784 20Z"/>
<path id="path9_fill" d="M 57.7609 6L 57.7609 20L 55.7809 20L 55.7809 7.74L 52.6209 7.74L 52.6209 6L 57.7609 6ZM 71.0233 6L 71.0233 7.36L 65.3633 20L 63.2433 20L 68.7833 7.74L 62.3833 7.74L 62.3833 10.24L 60.4633 10.24L 60.4633 6L 71.0233 6ZM 81.3675 11.52C 80.6875 11.52 80.0742 11.38 79.5275 11.1C 78.9942 10.82 78.5742 10.4333 78.2675 9.94C 77.9742 9.44667 77.8275 8.89333 77.8275 8.28C 77.8275 7.66667 77.9742 7.11333 78.2675 6.62C 78.5742 6.12667 78.9942 5.74667 79.5275 5.48C 80.0742 5.2 80.6875 5.06 81.3675 5.06C 82.0475 5.06 82.6542 5.2 83.1875 5.48C 83.7342 5.74667 84.1542 6.12667 84.4475 6.62C 84.7542 7.11333 84.9075 7.66667 84.9075 8.28C 84.9075 8.89333 84.7542 9.44667 84.4475 9.94C 84.1542 10.4333 83.7342 10.82 83.1875 11.1C 82.6542 11.38 82.0475 11.52 81.3675 11.52ZM 81.3675 10.36C 82.0208 10.36 82.5475 10.1667 82.9475 9.78C 83.3608 9.39333 83.5675 8.89333 83.5675 8.28C 83.5675 7.66667 83.3608 7.16667 82.9475 6.78C 82.5475 6.39333 82.0208 6.2 81.3675 6.2C 80.7142 6.2 80.1808 6.39333 79.7675 6.78C 79.3675 7.16667 79.1675 7.66667 79.1675 8.28C 79.1675 8.89333 79.3675 9.39333 79.7675 9.78C 80.1808 10.1667 80.7142 10.36 81.3675 10.36ZM 93.9069 20.16C 92.5069 20.16 91.2402 19.8533 90.1069 19.24C 88.9869 18.6133 88.1069 17.76 87.4669 16.68C 86.8269 15.5867 86.5069 14.36 86.5069 13C 86.5069 11.64 86.8269 10.42 87.4669 9.34C 88.1069 8.24667 88.9935 7.39333 90.1269 6.78C 91.2602 6.15333 92.5269 5.84 93.9269 5.84C 95.0202 5.84 96.0202 6.02667 96.9269 6.4C 97.8335 6.76 98.6069 7.3 99.2469 8.02L 97.9469 9.28C 96.8935 8.17333 95.5802 7.62 94.0069 7.62C 92.9669 7.62 92.0269 7.85333 91.1869 8.32C 90.3469 8.78667 89.6869 9.43333 89.2069 10.26C 88.7402 11.0733 88.5069 11.9867 88.5069 13C 88.5069 14.0133 88.7402 14.9333 89.2069 15.76C 89.6869 16.5733 90.3469 17.2133 91.1869 17.68C 92.0269 18.1467 92.9669 18.38 94.0069 18.38C 95.5669 18.38 96.8802 17.82 97.9469 16.7L 99.2469 17.96C 98.6069 18.68 97.8269 19.2267 96.9069 19.6C 96.0002 19.9733 95.0002 20.16 93.9069 20.16Z"/>
</defs>
</svg>
