<svg width="150" height="60" viewBox="0 0 150 60" version="1.1" xmlns="http://www.w3.org/2000/svg" xmlns:xlink="http://www.w3.org/1999/xlink">
<title>button</title>
<desc>Created using Figma</desc>
<g id="Canvas" transform="translate(8175 -1116)">
<g id="button">
<g id="Rectangle 12">
<use xlink:href="#path0_fill" transform="translate(-8175 1116)" fill="#0E0E0E"/>
<use xlink:href="#path0_fill" transform="translate(-8175 1116)" fill="#FFFFFF" fill-opacity="0.2"/>
</g>
<g id="OPEN">
<use xlink:href="#path1_fill" transform="translate(-8155 1134)" fill="#FFFFFF"/>
</g>
</g>
</g>
<defs>
<path id="path0_fill" d="M 0 30C 0 13.4315 13.4315 0 30 0L 120 0C 136.569 0 150 13.4315 150 30C 150 46.5685 136.569 60 120 60L 30 60C 13.4315 60 0 46.5685 0 30Z"/>
<path id="path1_fill" d="M 35.2662 19.12C 34.2129 19.12 33.2662 18.8867 32.4262 18.42C 31.5863 17.9533 30.9263 17.3133 30.4462 16.5C 29.9796 15.6733 29.7462 14.74 29.7462 13.7C 29.7462 12.66 29.9796 11.7333 30.4462 10.92C 30.9263 10.0933 31.5863 9.45333 32.4262 9C 33.2662 8.53333 34.2129 8.3 35.2662 8.3C 36.3196 8.3 37.2596 8.53333 38.0862 9C 38.9262 9.45333 39.5796 10.0933 40.0462 10.92C 40.5262 11.7333 40.7662 12.66 40.7662 13.7C 40.7662 14.74 40.5262 15.6733 40.0462 16.5C 39.5796 17.3133 38.9262 17.9533 38.0862 18.42C 37.2596 18.8867 36.3196 19.12 35.2662 19.12ZM 35.2662 17.44C 35.9462 17.44 36.5529 17.2867 37.0863 16.98C 37.6329 16.66 38.0596 16.22 38.3662 15.66C 38.6729 15.0867 38.8262 14.4333 38.8262 13.7C 38.8262 12.9667 38.6729 12.32 38.3662 11.76C 38.0596 11.1867 37.6329 10.7467 37.0863 10.44C 36.5529 10.1333 35.9462 9.98 35.2662 9.98C 34.5863 9.98 33.9729 10.1333 33.4262 10.44C 32.8929 10.7467 32.4663 11.1867 32.1463 11.76C 31.8396 12.32 31.6862 12.9667 31.6862 13.7C 31.6862 14.4333 31.8396 15.0867 32.1463 15.66C 32.4663 16.22 32.8929 16.66 33.4262 16.98C 33.9729 17.2867 34.5863 17.44 35.2662 17.44ZM 49.0416 8.3C 50.0682 8.3 50.9882 8.52667 51.8016 8.98C 52.6149 9.43333 53.2482 10.0667 53.7016 10.88C 54.1682 11.6933 54.4016 12.6333 54.4016 13.7C 54.4016 14.7667 54.1682 15.7133 53.7016 16.54C 53.2482 17.3533 52.6149 17.9867 51.8016 18.44C 50.9882 18.8933 50.0682 19.12 49.0416 19.12C 48.2816 19.12 47.5816 18.9733 46.9416 18.68C 46.3149 18.3867 45.7816 17.96 45.3416 17.4L 45.3416 22.88L 43.4216 22.88L 43.4216 8.4L 45.2616 8.4L 45.2616 10.08C 45.6882 9.49333 46.2282 9.05333 46.8816 8.76C 47.5349 8.45333 48.2549 8.3 49.0416 8.3ZM 48.8816 17.44C 49.5616 17.44 50.1682 17.2867 50.7016 16.98C 51.2482 16.66 51.6749 16.22 51.9816 15.66C 52.3016 15.0867 52.4616 14.4333 52.4616 13.7C 52.4616 12.9667 52.3016 12.32 51.9816 11.76C 51.6749 11.1867 51.2482 10.7467 50.7016 10.44C 50.1682 10.1333 49.5616 9.98 48.8816 9.98C 48.2149 9.98 47.6082 10.14 47.0616 10.46C 46.5282 10.7667 46.1016 11.2 45.7816 11.76C 45.4749 12.32 45.3216 12.9667 45.3216 13.7C 45.3216 14.4333 45.4749 15.0867 45.7816 15.66C 46.0882 16.22 46.5149 16.66 47.0616 16.98C 47.6082 17.2867 48.2149 17.44 48.8816 17.44ZM 66.6344 13.76C 66.6344 13.9067 66.621 14.1 66.5944 14.34L 57.9944 14.34C 58.1144 15.2733 58.521 16.0267 59.2144 16.6C 59.921 17.16 60.7944 17.44 61.8344 17.44C 63.101 17.44 64.121 17.0133 64.8944 16.16L 65.9544 17.4C 65.4744 17.96 64.8744 18.3867 64.1544 18.68C 63.4477 18.9733 62.6544 19.12 61.7744 19.12C 60.6544 19.12 59.661 18.8933 58.7944 18.44C 57.9277 17.9733 57.2544 17.3267 56.7744 16.5C 56.3077 15.6733 56.0744 14.74 56.0744 13.7C 56.0744 12.6733 56.301 11.7467 56.7544 10.92C 57.221 10.0933 57.8544 9.45333 58.6544 9C 59.4677 8.53333 60.381 8.3 61.3944 8.3C 62.4077 8.3 63.3077 8.53333 64.0944 9C 64.8944 9.45333 65.5144 10.0933 65.9544 10.92C 66.4077 11.7467 66.6344 12.6933 66.6344 13.76ZM 61.3944 9.92C 60.4744 9.92 59.701 10.2 59.0744 10.76C 58.461 11.32 58.101 12.0533 57.9944 12.96L 64.7944 12.96C 64.6877 12.0667 64.321 11.34 63.6944 10.78C 63.081 10.2067 62.3144 9.92 61.3944 9.92ZM 74.9605 8.3C 76.3071 8.3 77.3738 8.69333 78.1605 9.48C 78.9605 10.2533 79.3605 11.3933 79.3605 12.9L 79.3605 19L 77.4405 19L 77.4405 13.12C 77.4405 12.0933 77.1938 11.32 76.7005 10.8C 76.2071 10.28 75.5005 10.02 74.5805 10.02C 73.5405 10.02 72.7205 10.3267 72.1205 10.94C 71.5205 11.54 71.2205 12.4067 71.2205 13.54L 71.2205 19L 69.3005 19L 69.3005 8.4L 71.1405 8.4L 71.1405 10C 71.5271 9.45333 72.0471 9.03333 72.7005 8.74C 73.3671 8.44667 74.1205 8.3 74.9605 8.3Z"/>
</defs>
</svg>
