<svg width="580" height="1050" viewBox="0 0 580 1050" version="1.1" xmlns="http://www.w3.org/2000/svg" xmlns:xlink="http://www.w3.org/1999/xlink">
<title>Sidebar</title>
<desc>Created using Figma</desc>
<g id="Canvas" transform="translate(7520 -5777)">
<clipPath id="clip-0" clip-rule="evenodd">
<path d="M -7520 5777L -6940 5777L -6940 6827L -7520 6827L -7520 5777Z" fill="#FFFFFF"/>
</clipPath>
<g id="Sidebar" clip-path="url(#clip-0)">
<path d="M -7520 5777L -6940 5777L -6940 6827L -7520 6827L -7520 5777Z" fill="#0E0E0E"/>
<clipPath id="clip-1" clip-rule="evenodd">
<path d="M -7520 5777L -6940 5777L -6940 6827L -7520 6827L -7520 5777Z" fill="#FFFFFF"/>
</clipPath>
<g id="Light" clip-path="url(#clip-1)">
<path d="M -7520 5777L -6940 5777L -6940 6827L -7520 6827L -7520 5777Z" fill="#F1F1F1"/>
<clipPath id="clip-2" clip-rule="evenodd">
<path d="M -7520 6767L -6940 6767L -6940 6827L -7520 6827L -7520 6767Z" fill="#FFFFFF"/>
</clipPath>
<g id="pagination" clip-path="url(#clip-2)">
<g id="Group">
<g id="Ellipse 6">
<use xlink:href="#path0_fill" transform="translate(-7256 6792)" fill="#000000" fill-opacity="0.4"/>
</g>
<g id="Ellipse 6">
<use xlink:href="#path0_fill" transform="translate(-7231 6792)" fill="#000000" fill-opacity="0.4"/>
</g>
<g id="Ellipse 6">
<use xlink:href="#path0_fill" transform="translate(-7206 6792)" fill="#000000" fill-opacity="0.4"/>
</g>
</g>
</g>
<clipPath id="clip-3" clip-rule="evenodd">
<path d="M -7520 6627L -6940 6627L -6940 6677L -7520 6677L -7520 6627Z" fill="#FFFFFF"/>
</clipPath>
<g id="action icons" clip-path="url(#clip-3)">
<clipPath id="clip-4" clip-rule="evenodd">
<path d="M -7105 6627L -7057 6627L -7057 6675L -7105 6675L -7105 6627Z" fill="#FFFFFF"/>
</clipPath>
<g id="microphone" clip-path="url(#clip-4)">
<g id="Union">
<use xlink:href="#path1_fill" transform="translate(-7093 6632)" fill="#000000" fill-opacity="0.4"/>
</g>
</g>
<clipPath id="clip-5" clip-rule="evenodd">
<path d="M -7405 6627L -7357 6627L -7357 6675L -7405 6675L -7405 6627Z" fill="#FFFFFF"/>
</clipPath>
<g id="camera" clip-path="url(#clip-5)">
<g id="Union">
<use xlink:href="#path2_fill" transform="translate(-7398 6634)" fill="#000000" fill-opacity="0.4"/>
</g>
</g>
<clipPath id="clip-6" clip-rule="evenodd">
<path d="M -7255 6627L -7207 6627L -7207 6675L -7255 6675L -7255 6627Z" fill="#FFFFFF"/>
</clipPath>
<g id="power" clip-path="url(#clip-6)">
<g id="scale">
<use xlink:href="#path3_fill" transform="translate(-7240 6632)" fill="#000000" fill-opacity="0.4"/>
</g>
</g>
</g>
<g id="parked / light">
<clipPath id="clip-7" clip-rule="evenodd">
<path d="M -7520 5984L -6940 5984L -6940 6584L -7520 6584L -7520 5984Z" fill="#FFFFFF"/>
</clipPath>
<g id="parked / light" clip-path="url(#clip-7)">
<path d="M -7520 5984L -6940 5984L -6940 6584L -7520 6584L -7520 5984Z" fill="#0E0E0E"/>
<g id="Light">
<g id="background">
<use xlink:href="#path4_fill" transform="translate(-7520 5984)" fill="#F0F0F0"/>
</g>
<g id="MODEL 3">
<use xlink:href="#path5_fill" transform="translate(-7500 5994)" fill="#000000" fill-opacity="0.4"/>
</g>
<g id="headlights">
<g id="Vector 27" filter="url(#filter0_f)">
<use xlink:href="#path6_fill" transform="translate(-7336 5984)" fill="url(#paint8_linear)" fill-opacity="0.5"/>
</g>
<g id="Vector 27" filter="url(#filter1_f)">
<use xlink:href="#path6_fill" transform="matrix(-1 0 0 1 -7123 5984)" fill="url(#paint9_linear)" fill-opacity="0.5"/>
</g>
</g>
<g id="button">
<g id="Rectangle 12">
<use xlink:href="#path7_fill" transform="translate(-7305 6034)" fill="#0E0E0E"/>
<use xlink:href="#path7_fill" transform="translate(-7305 6034)" fill="#FFFFFF" fill-opacity="0.8"/>
</g>
<g id="OPEN">
<use xlink:href="#path8_fill" transform="translate(-7285 6052)"/>
</g>
</g>
<g id="button">
<g id="Rectangle 12">
<use xlink:href="#path7_fill" transform="translate(-7305 6464)" fill="#0E0E0E"/>
<use xlink:href="#path7_fill" transform="translate(-7305 6464)" fill="#FFFFFF" fill-opacity="0.8"/>
</g>
<g id="OPEN">
<use xlink:href="#path8_fill" transform="translate(-7285 6482)"/>
</g>
</g>
<g id="button">
<g id="Rectangle 12">
<use xlink:href="#path7_fill" transform="translate(-7470 6379)" fill="#0E0E0E"/>
<use xlink:href="#path7_fill" transform="translate(-7470 6379)" fill="#FFFFFF" fill-opacity="0.8"/>
</g>
</g>
<g id="model 3" filter="url(#filter2_d)">
<g id="Vector 21">
<use xlink:href="#path9_fill" transform="translate(-7303 6109)" fill="url(#paint18_linear)"/>
</g>
<g id="Vector 26">
<use xlink:href="#path10_fill" transform="translate(-7284.78 6405)" fill="#960000"/>
</g>
<g id="Vector 26">
<use xlink:href="#path10_fill" transform="matrix(-1 0 0 1 -7174.33 6405)" fill="#960000"/>
</g>
<g id="Vector 22">
<use xlink:href="#path11_fill" transform="translate(-7284.56 6123)" fill="url(#paint21_linear)"/>
</g>
<g id="Vector 22">
<use xlink:href="#path11_fill" transform="matrix(-1 0 0 1 -7173.63 6123)" fill="url(#paint22_linear)"/>
</g>
<g id="Frunk">
<g id="Vector 23">
<use xlink:href="#path12_fill" transform="translate(-7279.56 6116)" fill="url(#paint23_linear)"/>
<use xlink:href="#path13_stroke" transform="translate(-7279.56 6116)" fill="#DADADA"/>
</g>
<g id="Tesla Logo">
<g id="Tesla Logo">
<use xlink:href="#path14_fill" transform="matrix(-1 -1.22465e-16 1.22465e-16 -1 -7224.56 6132)" fill="#9E9E9E"/>
</g>
</g>
</g>
<g id="Vector 24">
<use xlink:href="#path15_fill" transform="translate(-7279.56 6183)" fill="url(#paint26_linear)"/>
</g>
<g id="Vector 25">
<use xlink:href="#path16_fill" transform="translate(-7286.6 6221.5)" fill="#444444"/>
</g>
<g id="Vector 25">
<use xlink:href="#path16_fill" transform="matrix(-1 0 0 1 -7172.01 6221.5)" fill="#444444"/>
</g>
</g>
<clipPath id="clip-8" clip-rule="evenodd">
<path d="M -7419 6385L -7371 6385L -7371 6433L -7419 6433L -7419 6385Z" fill="#FFFFFF"/>
</clipPath>
<g id="power" clip-path="url(#clip-8)">
<g id="scale">
<use xlink:href="#path17_fill" transform="translate(-7404 6390)"/>
</g>
</g>
</g>
</g>
</g>
<g id="Battery Level">
<g id="Remaining distance">
<use xlink:href="#path18_fill" transform="translate(-7137 5944)" fill="#000000" fill-opacity="0.4"/>
</g>
<g id="battery">
<g id="battery">
<mask id="mask0_outline_ins">
<use xlink:href="#path19_fill" fill="white" transform="translate(-7022 5947)"/>
</mask>
<g mask="url(#mask0_outline_ins)">
<use xlink:href="#path20_stroke_2x" transform="translate(-7022 5947)" fill="#000000" fill-opacity="0.4"/>
</g>
</g>
<g id="level">
<use xlink:href="#path21_fill" transform="translate(-7020 5949)" fill="#25CB55"/>
</g>
</g>
</g>
<g id="gear">
<g id="P">
<use xlink:href="#path22_fill" transform="translate(-7500 5945)" fill="#000000" fill-opacity="0.4"/>
</g>
<g id="R">
<use xlink:href="#path23_fill" transform="translate(-7473 5945)" fill="#000000" fill-opacity="0.4"/>
</g>
<g id="N">
<use xlink:href="#path24_fill" transform="translate(-7446 5945)" fill="#000000" fill-opacity="0.4"/>
</g>
<g id="D">
<use xlink:href="#path25_fill" transform="translate(-7419 5945)"/>
</g>
</g>
<g id="Speedometer">
<g id="MPH">
<use xlink:href="#path26_fill" transform="translate(-7270 5944)" fill="#000000" fill-opacity="0.4"/>
</g>
<g id="speedometer line">
<use xlink:href="#path27_fill" transform="translate(-7500 5982)" fill="#000000" fill-opacity="0.4"/>
</g>
<g id="current speed Line">
<use xlink:href="#path28_fill" transform="translate(-7230 5980)" fill="#25CB55"/>
</g>
<g id="Current speed number">
<use xlink:href="#path29_fill" transform="translate(-7510 5837)"/>
</g>
</g>
<clipPath id="clip-9" clip-rule="evenodd">
<path d="M -7520 5777L -6940 5777L -6940 5837L -7520 5837L -7520 5777Z" fill="#FFFFFF"/>
</clipPath>
<g id="top info icons" clip-path="url(#clip-9)">
<clipPath id="clip-10" clip-rule="evenodd">
<path d="M -7010 5787L -6962 5787L -6962 5835L -7010 5835L -7010 5787Z" fill="#FFFFFF"/>
</clipPath>
<g id="headlights" clip-path="url(#clip-10)">
<g id="Vector 16">
<use xlink:href="#path30_stroke" transform="translate(-7004 5796)" fill="#25CB55"/>
</g>
</g>
<clipPath id="clip-11" clip-rule="evenodd">
<path d="M -7430 5787L -7382 5787L -7382 5835L -7430 5835L -7430 5787Z" fill="#FFFFFF"/>
</clipPath>
<g id="tire pressure" clip-path="url(#clip-11)">
<g id="Group">
<g id="Vector 17">
<use xlink:href="#path31_stroke" transform="translate(-7423 5797)" fill="#FFBD0A"/>
</g>
<g id="Vector 18">
<use xlink:href="#path32_stroke" transform="translate(-7417.5 5824)" fill="#FFBD0A"/>
</g>
<g id="Vector 17">
<use xlink:href="#path33_stroke" transform="translate(-7406 5798.5)" fill="#FFBD0A"/>
</g>
</g>
</g>
</g>
</g>
</g>
</g>
<defs>
<filter id="filter0_f" filterUnits="userSpaceOnUse" x="-7361" y="5959" width="162" height="220" color-interpolation-filters="sRGB">
<feFlood flood-opacity="0" result="BackgroundImageFix"/>
<feBlend mode="normal" in="SourceGraphic" in2="BackgroundImageFix" result="shape"/>
<feGaussianBlur stdDeviation="12.5" result="effect1_foregroundBlur"/>
</filter>
<filter id="filter1_f" filterUnits="userSpaceOnUse" x="-7260" y="5959" width="162" height="220" color-interpolation-filters="sRGB">
<feFlood flood-opacity="0" result="BackgroundImageFix"/>
<feBlend mode="normal" in="SourceGraphic" in2="BackgroundImageFix" result="shape"/>
<feGaussianBlur stdDeviation="12.5" result="effect1_foregroundBlur"/>
</filter>
<filter id="filter2_d" filterUnits="userSpaceOnUse" x="-7313" y="6101" width="167" height="355" color-interpolation-filters="sRGB">
<feFlood flood-opacity="0" result="BackgroundImageFix"/>
<feColorMatrix in="SourceAlpha" type="matrix" values="0 0 0 0 0 0 0 0 0 0 0 0 0 0 0 0 0 0 255 0"/>
<feOffset dx="0" dy="2"/>
<feGaussianBlur stdDeviation="5"/>
<feColorMatrix type="matrix" values="0 0 0 0 0 0 0 0 0 0 0 0 0 0 0 0 0 0 0.25 0"/>
<feBlend mode="normal" in2="BackgroundImageFix" result="effect1_dropShadow"/>
<feBlend mode="normal" in="SourceGraphic" in2="effect1_dropShadow" result="shape"/>
</filter>
<linearGradient id="paint8_linear" x1="0" y1="0" x2="1" y2="0" gradientUnits="userSpaceOnUse" gradientTransform="matrix(6.85802e-15 170 -112 1.04095e-14 112 -1.04095e-14)">
<stop offset="0" stop-color="#FFFFFF" stop-opacity="0"/>
<stop offset="1" stop-color="#FFFFFF"/>
</linearGradient>
<linearGradient id="paint9_linear" x1="0" y1="0" x2="1" y2="0" gradientUnits="userSpaceOnUse" gradientTransform="matrix(6.85802e-15 170 -112 1.04095e-14 112 -1.04095e-14)">
<stop offset="0" stop-color="#FFFFFF" stop-opacity="0"/>
<stop offset="1" stop-color="#FFFFFF"/>
</linearGradient>
<linearGradient id="paint18_linear" x1="0" y1="0" x2="1" y2="0" gradientUnits="userSpaceOnUse" gradientTransform="matrix(146 -0.999998 0.439771 64.2067 0.22445 97.3966)">
<stop offset="0" stop-color="#FFFFFF"/>
<stop offset="0.486188" stop-color="#DEDEDE"/>
<stop offset="0.994475" stop-color="#DEDEDE"/>
</linearGradient>
<linearGradient id="paint21_linear" x1="0" y1="0" x2="1" y2="0" gradientUnits="userSpaceOnUse" gradientTransform="matrix(9 16.5 -12.7352 6.94649 19.2944 -1.47325)">
<stop offset="0" stop-color="#6E6E6E"/>
<stop offset="0.342541" stop-color="#FFFFFF"/>
<stop offset="0.480663" stop-color="#C9C9C9"/>
<stop offset="0.889503" stop-color="#5D5D5D"/>
</linearGradient>
<linearGradient id="paint22_linear" x1="0" y1="0" x2="1" y2="0" gradientUnits="userSpaceOnUse" gradientTransform="matrix(9 16.5 -12.7352 6.94649 19.2944 -1.47325)">
<stop offset="0" stop-color="#6E6E6E"/>
<stop offset="0.342541" stop-color="#FFFFFF"/>
<stop offset="0.480663" stop-color="#C9C9C9"/>
<stop offset="0.889503" stop-color="#5D5D5D"/>
</linearGradient>
<linearGradient id="paint23_linear" x1="0" y1="0" x2="1" y2="0" gradientUnits="userSpaceOnUse" gradientTransform="matrix(-82.5 0.500002 -0.602124 -99.3497 91.3011 89.2149)">
<stop offset="0" stop-color="#DADADA"/>
<stop offset="0.331492" stop-color="#F0F0F0"/>
<stop offset="1" stop-color="#FFFFFF"/>
</linearGradient>
<linearGradient id="paint26_linear" x1="0" y1="0" x2="1" y2="0" gradientUnits="userSpaceOnUse" gradientTransform="matrix(100 -4.18286e-13 -2.65349e-13 42.4628 1.38226e-13 -21.2314)">
<stop offset="0" stop-color="#262626"/>
<stop offset="0.778317" stop-color="#3A3A3A"/>
<stop offset="0.823126" stop-color="#615C5C"/>
<stop offset="0.864312" stop-color="#282828"/>
<stop offset="1" stop-color="#484848"/>
</linearGradient>
<path id="path0_fill" d="M 10 5C 10 7.76142 7.76142 10 5 10C 2.23858 10 0 7.76142 0 5C 0 2.23858 2.23858 0 5 0C 7.76142 0 10 2.23858 10 5Z"/>
<path id="path1_fill" fill-rule="evenodd" d="M 12 0C 8.68652 0 6 2.68628 6 6L 6 20C 6 23.3137 8.68652 26 12 26C 15.3135 26 18 23.3137 18 20L 18 6C 18 2.68628 15.3135 0 12 0ZM 4 18C 4 16.8955 3.10449 16 2 16C 0.895508 16 0 16.8955 0 18L 0 20C 0 25.946 4.32422 30.8818 10 31.834L 10 34L 4 34C 2.89551 34 2 34.8955 2 36C 2 37.1045 2.89551 38 4 38L 12 38L 20 38C 21.1045 38 22 37.1045 22 36C 22 34.8955 21.1045 34 20 34L 14 34L 14 31.834C 19.6758 30.8818 24 25.946 24 20L 24 18C 24 16.8955 23.1045 16 22 16C 20.8955 16 20 16.8955 20 18L 20 20C 20 24.4182 16.418 28 12 28C 7.58203 28 4 24.4182 4 20L 4 18Z"/>
<path id="path2_fill" fill-rule="evenodd" d="M 34 17C 34 26.3889 26.3887 34 17 34C 7.61133 34 0 26.3889 0 17C 0 7.61108 7.61133 0 17 0C 26.3887 0 34 7.61108 34 17ZM 31 17C 31 24.7319 24.7324 31 17 31C 9.26758 31 3 24.7319 3 17C 3 9.26807 9.26758 3 17 3C 24.7324 3 31 9.26807 31 17ZM 17 28C 23.0752 28 28 23.0752 28 17C 28 10.9248 23.0752 6 17 6C 10.9248 6 6 10.9248 6 17C 6 23.0752 10.9248 28 17 28ZM 14 18C 16.209 18 18 16.2092 18 14C 18 11.7908 16.209 10 14 10C 11.791 10 10 11.7908 10 14C 10 16.2092 11.791 18 14 18ZM 23 21.5C 23 22.8806 21.8809 24 20.5 24C 19.1191 24 18 22.8806 18 21.5C 18 20.1194 19.1191 19 20.5 19C 21.8809 19 23 20.1194 23 21.5Z"/>
<path id="path3_fill" fill-rule="evenodd" d="M 9.24392 14.6152L 9.24392 0L 0.0779038 22C -0.19651 22.6587 0.287865 23.3848 1.00124 23.3848L 8.75661 23.3848L 8.75661 38L 17.9226 16C 18.197 15.3413 17.7127 14.6152 16.9993 14.6152L 9.24392 14.6152Z"/>
<path id="path4_fill" d="M 0 0L 580 0L 580 600L 0 600L 0 0Z"/>
<path id="path5_fill" d="M 15.08 20L 15.06 9.8L 10 18.3L 9.08 18.3L 4.02 9.86L 4.02 20L 2.1 20L 2.1 6L 3.74 6L 9.58 15.84L 15.34 6L 16.98 6L 17 20L 15.08 20ZM 27.5216 20.16C 26.1082 20.16 24.8349 19.8533 23.7016 19.24C 22.5682 18.6133 21.6749 17.7533 21.0216 16.66C 20.3816 15.5667 20.0616 14.3467 20.0616 13C 20.0616 11.6533 20.3816 10.4333 21.0216 9.34C 21.6749 8.24667 22.5682 7.39333 23.7016 6.78C 24.8349 6.15333 26.1082 5.84 27.5216 5.84C 28.9216 5.84 30.1882 6.15333 31.3216 6.78C 32.4549 7.39333 33.3416 8.24667 33.9816 9.34C 34.6216 10.42 34.9416 11.64 34.9416 13C 34.9416 14.36 34.6216 15.5867 33.9816 16.68C 33.3416 17.76 32.4549 18.6133 31.3216 19.24C 30.1882 19.8533 28.9216 20.16 27.5216 20.16ZM 27.5216 18.38C 28.5482 18.38 29.4682 18.1467 30.2816 17.68C 31.1082 17.2133 31.7549 16.5733 32.2216 15.76C 32.7016 14.9333 32.9416 14.0133 32.9416 13C 32.9416 11.9867 32.7016 11.0733 32.2216 10.26C 31.7549 9.43333 31.1082 8.78667 30.2816 8.32C 29.4682 7.85333 28.5482 7.62 27.5216 7.62C 26.4949 7.62 25.5616 7.85333 24.7216 8.32C 23.8949 8.78667 23.2416 9.43333 22.7616 10.26C 22.2949 11.0733 22.0616 11.9867 22.0616 13C 22.0616 14.0133 22.2949 14.9333 22.7616 15.76C 23.2416 16.5733 23.8949 17.2133 24.7216 17.68C 25.5616 18.1467 26.4949 18.38 27.5216 18.38ZM 37.9984 6L 43.8984 6C 45.3784 6 46.6918 6.29333 47.8384 6.88C 48.9851 7.46667 49.8718 8.29333 50.4984 9.36C 51.1384 10.4133 51.4584 11.6267 51.4584 13C 51.4584 14.3733 51.1384 15.5933 50.4984 16.66C 49.8718 17.7133 48.9851 18.5333 47.8384 19.12C 46.6918 19.7067 45.3784 20 43.8984 20L 37.9984 20L 37.9984 6ZM 43.7784 18.26C 44.9118 18.26 45.9051 18.04 46.7584 17.6C 47.6251 17.16 48.2918 16.5467 48.7584 15.76C 49.2251 14.96 49.4584 14.04 49.4584 13C 49.4584 11.96 49.2251 11.0467 48.7584 10.26C 48.2918 9.46 47.6251 8.84 46.7584 8.4C 45.9051 7.96 44.9118 7.74 43.7784 7.74L 39.9984 7.74L 39.9984 18.26L 43.7784 18.26ZM 64.6819 18.26L 64.6819 20L 54.5219 20L 54.5219 6L 64.4019 6L 64.4019 7.74L 56.5219 7.74L 56.5219 12.04L 63.5419 12.04L 63.5419 13.74L 56.5219 13.74L 56.5219 18.26L 64.6819 18.26ZM 67.9203 6L 69.9203 6L 69.9203 18.26L 77.5003 18.26L 77.5003 20L 67.9203 20L 67.9203 6ZM 89.3864 11.88C 90.7597 12.0133 91.8064 12.44 92.5264 13.16C 93.2464 13.8667 93.6064 14.7733 93.6064 15.88C 93.6064 16.68 93.4064 17.4067 93.0064 18.06C 92.6064 18.7 92.0064 19.2133 91.2064 19.6C 90.4197 19.9733 89.4531 20.16 88.3064 20.16C 87.3064 20.16 86.3464 20.0133 85.4264 19.72C 84.5064 19.4133 83.7531 18.9933 83.1664 18.46L 84.0864 16.88C 84.5664 17.3333 85.1797 17.7 85.9264 17.98C 86.6731 18.2467 87.4664 18.38 88.3064 18.38C 89.3464 18.38 90.1531 18.16 90.7264 17.72C 91.3131 17.28 91.6064 16.6733 91.6064 15.9C 91.6064 15.1267 91.3197 14.5267 90.7464 14.1C 90.1731 13.6733 89.3064 13.46 88.1464 13.46L 87.0264 13.46L 87.0264 12.06L 90.5464 7.74L 83.8064 7.74L 83.8064 6L 93.0464 6L 93.0464 7.36L 89.3864 11.88Z"/>
<path id="path6_fill" d="M 62.4262 170L 0 0L 112 0L 62.4262 170Z"/>
<path id="path7_fill" d="M 0 30C 0 13.4315 13.4315 0 30 0L 120 0C 136.569 0 150 13.4315 150 30C 150 46.5685 136.569 60 120 60L 30 60C 13.4315 60 0 46.5685 0 30Z"/>
<path id="path8_fill" d="M 35.2662 19.12C 34.2129 19.12 33.2662 18.8867 32.4262 18.42C 31.5862 17.9533 30.9262 17.3133 30.4462 16.5C 29.9796 15.6733 29.7462 14.74 29.7462 13.7C 29.7462 12.66 29.9796 11.7333 30.4462 10.92C 30.9262 10.0933 31.5862 9.45333 32.4262 9C 33.2662 8.53333 34.2129 8.3 35.2662 8.3C 36.3196 8.3 37.2596 8.53333 38.0862 9C 38.9262 9.45333 39.5796 10.0933 40.0463 10.92C 40.5262 11.7333 40.7662 12.66 40.7662 13.7C 40.7662 14.74 40.5262 15.6733 40.0463 16.5C 39.5796 17.3133 38.9262 17.9533 38.0862 18.42C 37.2596 18.8867 36.3196 19.12 35.2662 19.12ZM 35.2662 17.44C 35.9462 17.44 36.5529 17.2867 37.0862 16.98C 37.6329 16.66 38.0596 16.22 38.3663 15.66C 38.6729 15.0867 38.8263 14.4333 38.8263 13.7C 38.8263 12.9667 38.6729 12.32 38.3663 11.76C 38.0596 11.1867 37.6329 10.7467 37.0862 10.44C 36.5529 10.1333 35.9462 9.98 35.2662 9.98C 34.5862 9.98 33.9729 10.1333 33.4263 10.44C 32.8929 10.7467 32.4663 11.1867 32.1463 11.76C 31.8396 12.32 31.6863 12.9667 31.6863 13.7C 31.6863 14.4333 31.8396 15.0867 32.1463 15.66C 32.4663 16.22 32.8929 16.66 33.4263 16.98C 33.9729 17.2867 34.5862 17.44 35.2662 17.44ZM 49.0416 8.3C 50.0682 8.3 50.9882 8.52667 51.8016 8.98C 52.6149 9.43333 53.2482 10.0667 53.7016 10.88C 54.1682 11.6933 54.4016 12.6333 54.4016 13.7C 54.4016 14.7667 54.1682 15.7133 53.7016 16.54C 53.2482 17.3533 52.6149 17.9867 51.8016 18.44C 50.9882 18.8933 50.0682 19.12 49.0416 19.12C 48.2816 19.12 47.5816 18.9733 46.9416 18.68C 46.3149 18.3867 45.7816 17.96 45.3416 17.4L 45.3416 22.88L 43.4216 22.88L 43.4216 8.4L 45.2616 8.4L 45.2616 10.08C 45.6882 9.49333 46.2282 9.05333 46.8816 8.76C 47.5349 8.45333 48.2549 8.3 49.0416 8.3ZM 48.8816 17.44C 49.5616 17.44 50.1682 17.2867 50.7016 16.98C 51.2482 16.66 51.6749 16.22 51.9816 15.66C 52.3016 15.0867 52.4616 14.4333 52.4616 13.7C 52.4616 12.9667 52.3016 12.32 51.9816 11.76C 51.6749 11.1867 51.2482 10.7467 50.7016 10.44C 50.1682 10.1333 49.5616 9.98 48.8816 9.98C 48.2149 9.98 47.6082 10.14 47.0616 10.46C 46.5282 10.7667 46.1016 11.2 45.7816 11.76C 45.4749 12.32 45.3216 12.9667 45.3216 13.7C 45.3216 14.4333 45.4749 15.0867 45.7816 15.66C 46.0882 16.22 46.5149 16.66 47.0616 16.98C 47.6082 17.2867 48.2149 17.44 48.8816 17.44ZM 66.6344 13.76C 66.6344 13.9067 66.621 14.1 66.5944 14.34L 57.9944 14.34C 58.1144 15.2733 58.521 16.0267 59.2144 16.6C 59.921 17.16 60.7944 17.44 61.8344 17.44C 63.101 17.44 64.121 17.0133 64.8944 16.16L 65.9544 17.4C 65.4744 17.96 64.8744 18.3867 64.1544 18.68C 63.4477 18.9733 62.6544 19.12 61.7744 19.12C 60.6544 19.12 59.661 18.8933 58.7944 18.44C 57.9277 17.9733 57.2544 17.3267 56.7744 16.5C 56.3077 15.6733 56.0744 14.74 56.0744 13.7C 56.0744 12.6733 56.301 11.7467 56.7544 10.92C 57.221 10.0933 57.8544 9.45333 58.6544 9C 59.4677 8.53333 60.381 8.3 61.3944 8.3C 62.4077 8.3 63.3077 8.53333 64.0944 9C 64.8944 9.45333 65.5144 10.0933 65.9544 10.92C 66.4077 11.7467 66.6344 12.6933 66.6344 13.76ZM 61.3944 9.92C 60.4744 9.92 59.701 10.2 59.0744 10.76C 58.461 11.32 58.101 12.0533 57.9944 12.96L 64.7944 12.96C 64.6877 12.0667 64.321 11.34 63.6944 10.78C 63.081 10.2067 62.3144 9.92 61.3944 9.92ZM 74.9605 8.3C 76.3071 8.3 77.3738 8.69333 78.1605 9.48C 78.9605 10.2533 79.3605 11.3933 79.3605 12.9L 79.3605 19L 77.4405 19L 77.4405 13.12C 77.4405 12.0933 77.1938 11.32 76.7005 10.8C 76.2071 10.28 75.5005 10.02 74.5805 10.02C 73.5405 10.02 72.7205 10.3267 72.1205 10.94C 71.5205 11.54 71.2205 12.4067 71.2205 13.54L 71.2205 19L 69.3005 19L 69.3005 8.4L 71.1405 8.4L 71.1405 10C 71.5271 9.45333 72.0471 9.03333 72.7005 8.74C 73.3671 8.44667 74.1205 8.3 74.9605 8.3Z"/>
<path id="path9_fill" d="M 10.4444 30C 10.4444 30 26.9443 0 73.4444 0C 119.945 0 136.444 30 136.444 30C 136.444 30 138.444 41 138.444 65C 138.444 89 135.444 95.5 135.444 98L 135.444 112C 135.444 112 145.444 116 146.444 121C 147.444 126 146.444 127.5 146.444 127.5L 135.444 121C 135.444 121 137.444 161 137.444 183C 137.444 205 136.444 234.5 136.444 234.5C 136.444 234.5 138.444 236.5 138.444 240.5L 138.444 289.5C 138.444 293 135.654 298.462 132.444 304C 129.853 312.422 127.924 315.595 123.944 319.5C 106.754 332.019 96.6497 334.192 73.4444 334C 50.2392 333.808 40.1348 332.019 22.9444 319.5C 18.9649 315.595 17.0361 312.422 14.4444 304C 11.235 298.462 8.44444 293 8.44444 289.5L 8.44444 240.5C 8.44444 236.5 10.4444 234.5 10.4444 234.5C 10.4444 234.5 9.44444 205 9.44444 183C 9.44444 161 11.4444 121 11.4444 121L 2.07526 126.536C 1.16061 127.077 0.0995696 126.727 0.0253269 125.668C -0.0457575 124.653 0.0144375 123.15 0.444444 121C 1.44444 116 11.4444 112 11.4444 112L 11.4444 98C 11.4444 95.5 8.44434 89 8.44444 65C 8.44455 41 10.4444 30 10.4444 30Z"/>
<path id="path10_fill" d="M 3.22388 20C -1.15116 15 -0.276112 5 1.22387 0C 1.89054 3.16667 2.22389 11 5.72392 16.5C 8.6051 21.0275 22.2239 29 28.2239 32C 21.7239 30 8.72389 26.2857 3.22388 20Z"/>
<path id="path11_fill" d="M 0.926794 16C 2.92672 9.5 13.9268 0 23.9268 0C 18.4268 5.5 14.9268 10 10.9268 18C 6.92675 26 5.42675 31 2.92679 31C 0.426841 31 -1.07313 22.5 0.926794 16Z"/>
<path id="path12_fill" d="M 24 7.04C 12.5 15.04 0 66.5399 0 83.04L 100 83.04C 100 66.5399 87.5 15.04 76 7.04C 64.5 -0.96 50 0.04 50 0.04C 50 0.04 35.5 -0.96 24 7.04Z"/>
<path id="path13_stroke" d="M 0 83.04L -0.5 83.04L -0.5 83.54L 0 83.54L 0 83.04ZM 50 0.04L 49.9656 0.538815L 50 0.541188L 50.0344 0.538815L 50 0.04ZM 100 83.04L 100 83.54L 100.5 83.54L 100.5 83.04L 100 83.04ZM 0.5 83.04C 0.5 74.8616 3.609 57.916 8.16819 41.9901C 10.4457 34.0337 13.0744 26.3643 15.8546 20.1745C 18.6451 13.9602 21.5361 9.36308 24.2855 7.45045L 23.7145 6.62955C 20.7139 8.71692 17.7299 13.5573 14.9423 19.7649C 12.1443 25.9969 9.49176 33.7338 7.20681 41.7149C 2.641 57.6639 -0.5 74.7183 -0.5 83.04L 0.5 83.04ZM 24.2855 7.45045C 29.9609 3.49335 36.3518 1.77953 41.3858 1.0346C 43.8948 0.662387 46.0351 0.539622 47.5648 0.508647C 48.3261 0.493121 48.9254 0.500834 49.3405 0.512461C 49.5464 0.518207 49.7025 0.524828 49.8097 0.530117C 49.8626 0.532717 49.9015 0.534899 49.9285 0.536498C 49.9415 0.537274 49.9508 0.537854 49.9574 0.538279C 49.9605 0.538478 49.9626 0.538613 49.9641 0.538717C 49.9648 0.538762 49.9652 0.538787 49.9655 0.53881C 49.9656 0.538819 49.9657 0.53882 49.9657 0.538824C 49.9657 0.538821 49.9656 0.538815 50 0.04C 50.0344 -0.458815 50.0342 -0.458829 50.0339 -0.458847C 50.0338 -0.458858 50.0335 -0.458879 50.0331 -0.458901C 50.0326 -0.458937 50.0317 -0.459002 50.0306 -0.459074C 50.0286 -0.459204 50.0254 -0.459417 50.0215 -0.459668C 50.0141 -0.460143 50.0024 -0.460875 49.9877 -0.461747C 49.959 -0.463443 49.9151 -0.465901 49.859 -0.468672C 49.7482 -0.474124 49.5815 -0.481176 49.3685 -0.487148C 48.9457 -0.498959 48.3223 -0.506871 47.5445 -0.491147C 45.9962 -0.459622 43.7927 -0.332387 41.2392 0.0453983C 36.1482 0.800473 29.5391 2.58665 23.7145 6.62955L 24.2855 7.45045ZM 100.5 83.04C 100.5 74.7183 97.359 57.6639 92.7932 41.7149C 90.5082 33.7338 87.8557 25.9969 85.0577 19.7649C 82.2701 13.5573 79.2861 8.71692 76.2855 6.62955L 75.7145 7.45045C 78.4639 9.36308 81.3549 13.9602 84.1454 20.1745C 86.9256 26.3643 89.5543 34.0337 91.8318 41.9901C 96.391 57.916 99.5 74.8616 99.5 83.04L 100.5 83.04ZM 76.2855 6.62955C 70.4609 2.58665 63.8518 0.800473 58.7608 0.0453983C 56.2073 -0.332387 54.0038 -0.459622 52.4555 -0.491147C 51.6777 -0.506871 51.0543 -0.498959 50.6315 -0.487148C 50.4185 -0.481176 50.2518 -0.474124 50.141 -0.468672C 50.0849 -0.465901 50.041 -0.463443 50.0123 -0.461747C 49.9976 -0.460875 49.9859 -0.460143 49.9785 -0.459668C 49.9746 -0.459417 49.9714 -0.459204 49.9694 -0.459074C 49.9683 -0.459002 49.9674 -0.458937 49.9669 -0.458901C 49.9665 -0.458879 49.9662 -0.458858 49.9661 -0.458847C 49.9658 -0.458829 49.9656 -0.458815 50 0.04C 50.0344 0.538815 50.0343 0.538821 50.0343 0.538824C 50.0343 0.53882 50.0344 0.538819 50.0345 0.53881C 50.0348 0.538787 50.0352 0.538762 50.0359 0.538717C 50.0374 0.538613 50.0395 0.538478 50.0426 0.538279C 50.0492 0.537854 50.0585 0.537274 50.0715 0.536498C 50.0985 0.534899 50.1374 0.532717 50.1903 0.530117C 50.2975 0.524828 50.4536 0.518207 50.6595 0.512461C 51.0746 0.500834 51.6739 0.493121 52.4352 0.508647C 53.9649 0.539622 56.1052 0.662387 58.6142 1.0346C 63.6482 1.77953 70.0391 3.49335 75.7145 7.45045L 76.2855 6.62955ZM 100 82.54L 0 82.54L 0 83.54L 100 83.54L 100 82.54Z"/>
<path id="path14_fill" fill-rule="evenodd" d="M 6.39941 2.09814L 5.00049 10L 3.59033 2.09717C 2.26562 2.09814 1.8457 2.24463 1.78467 2.84424C 1.78467 2.84424 0.889648 2.50928 0.438965 1.8291C 2.19922 1.00977 3.96826 0.972656 3.96826 0.972656L 4.99805 2.23535L 6.03076 0.972656C 6.03076 0.972656 7.79932 1.00977 9.56006 1.8291C 9.10889 2.50928 8.21436 2.84424 8.21436 2.84424C 8.15381 2.24512 7.73291 2.09814 6.39941 2.09814ZM 9.71973 1.55957C 8.05225 0.82959 6.42334 0.597168 5 0.608398C 3.57666 0.597168 1.94727 0.82959 0.279785 1.55957C 0.081543 1.19775 0 0.978516 0 0.978516C 1.82275 0.253906 3.52979 0.00634766 5 0C 6.46973 0.00634766 8.17725 0.253906 10 0.978516C 10 0.978516 9.94287 1.15625 9.71973 1.55957Z"/>
<path id="path15_fill" d="M 50 0C 14 0 0 15.5 0 15.5L 0 23.5202C 0 26.1701 0.18564 28.7962 0.551548 31.4207C 2.50814 45.4544 9 93.1372 9 108C 9 125.5 15 218.5 15 218.5C 17 222.5 21.5 235.5 50 235.5C 78.5 235.5 83 222.5 85 218.5C 85 218.5 91 125.5 91 108C 91 93.1372 97.4919 45.4544 99.4485 31.4207C 99.8144 28.7962 100 26.1701 100 23.5202L 100 15.5C 100 15.5 86 0 50 0Z"/>
<path id="path16_fill" d="M 0.0432526 74.5C -0.456747 12.5 3.54325 0 3.54325 0C 3.54325 0 12.0432 27.5 13.5432 76.5C 15.0432 125.5 15.5433 169 15.5433 169C 15.5433 169 0.543253 136.5 0.0432526 74.5Z"/>
<path id="path17_fill" fill-rule="evenodd" d="M 9.24392 14.6152L 9.24392 0L 0.0779038 22C -0.19651 22.6587 0.287865 23.3848 1.00124 23.3848L 8.7571 23.3848L 8.7571 38L 17.9231 16C 18.1975 15.3413 17.7132 14.6152 16.9998 14.6152L 9.24392 14.6152Z"/>
<path id="path18_fill" d="M 62.9609 5.84C 64.8409 5.84 66.2876 6.44667 67.3009 7.66C 68.3276 8.87333 68.8409 10.5933 68.8409 12.82C 68.8409 14.38 68.5609 15.7133 68.0009 16.82C 67.4543 17.9133 66.6809 18.7467 65.6809 19.32C 64.6943 19.88 63.5409 20.16 62.2209 20.16C 61.5409 20.16 60.9009 20.0933 60.3009 19.96C 59.7009 19.8133 59.1809 19.6067 58.7409 19.34L 59.5009 17.78C 60.1809 18.22 61.0809 18.44 62.2009 18.44C 63.6543 18.44 64.7876 17.9933 65.6009 17.1C 66.4276 16.1933 66.8409 14.88 66.8409 13.16L 66.8409 12.66C 66.4409 13.26 65.8876 13.72 65.1809 14.04C 64.4743 14.3467 63.6809 14.5 62.8009 14.5C 61.8809 14.5 61.0543 14.3267 60.3209 13.98C 59.6009 13.6333 59.0343 13.14 58.6209 12.5C 58.2209 11.8467 58.0209 11.1 58.0209 10.26C 58.0209 9.38 58.2343 8.60667 58.6609 7.94C 59.1009 7.27333 59.6943 6.76 60.4409 6.4C 61.1876 6.02667 62.0276 5.84 62.9609 5.84ZM 63.1409 12.88C 63.7676 12.88 64.3276 12.76 64.8209 12.52C 65.3143 12.28 65.6943 11.9533 65.9609 11.54C 66.2409 11.1267 66.3809 10.6667 66.3809 10.16C 66.3809 9.66667 66.2476 9.22 65.9809 8.82C 65.7276 8.40667 65.3476 8.08 64.8409 7.84C 64.3476 7.58667 63.7476 7.46 63.0409 7.46C 62.1209 7.46 61.3743 7.70667 60.8009 8.2C 60.2409 8.69333 59.9609 9.35333 59.9609 10.18C 59.9609 11.0067 60.2476 11.6667 60.8209 12.16C 61.3943 12.64 62.1676 12.88 63.1409 12.88ZM 76.4847 20.16C 75.378 20.16 74.3914 19.88 73.5247 19.32C 72.6714 18.7467 71.998 17.92 71.5047 16.84C 71.0114 15.76 70.7647 14.48 70.7647 13C 70.7647 11.52 71.0114 10.24 71.5047 9.16C 71.998 8.08 72.6714 7.26 73.5247 6.7C 74.3914 6.12667 75.378 5.84 76.4847 5.84C 77.578 5.84 78.5514 6.12667 79.4047 6.7C 80.2714 7.26 80.9514 8.08 81.4447 9.16C 81.938 10.24 82.1847 11.52 82.1847 13C 82.1847 14.48 81.938 15.76 81.4447 16.84C 80.9514 17.92 80.2714 18.7467 79.4047 19.32C 78.5514 19.88 77.578 20.16 76.4847 20.16ZM 76.4847 18.38C 77.6047 18.38 78.498 17.92 79.1647 17C 79.8447 16.08 80.1847 14.7467 80.1847 13C 80.1847 11.2533 79.8447 9.92 79.1647 9C 78.498 8.08 77.6047 7.62 76.4847 7.62C 75.3514 7.62 74.4447 8.08 73.7647 9C 73.098 9.92 72.7647 11.2533 72.7647 13C 72.7647 14.7467 73.098 16.08 73.7647 17C 74.4447 17.92 75.3514 18.38 76.4847 18.38ZM 87.1445 13.52C 86.1712 13.52 85.3845 13.1667 84.7845 12.46C 84.1845 11.7533 83.8845 10.8333 83.8845 9.7C 83.8845 8.56667 84.1845 7.64667 84.7845 6.94C 85.3845 6.23333 86.1712 5.88 87.1445 5.88C 88.1179 5.88 88.8979 6.23333 89.4845 6.94C 90.0845 7.63333 90.3845 8.55333 90.3845 9.7C 90.3845 10.8467 90.0845 11.7733 89.4845 12.48C 88.8979 13.1733 88.1179 13.52 87.1445 13.52ZM 95.5845 6L 97.1245 6L 87.5645 20L 86.0245 20L 95.5845 6ZM 87.1445 12.38C 87.7579 12.38 88.2379 12.1467 88.5845 11.68C 88.9312 11.2 89.1045 10.54 89.1045 9.7C 89.1045 8.86 88.9312 8.20667 88.5845 7.74C 88.2379 7.26 87.7579 7.02 87.1445 7.02C 86.5445 7.02 86.0645 7.26 85.7045 7.74C 85.3579 8.22 85.1845 8.87333 85.1845 9.7C 85.1845 10.5267 85.3579 11.18 85.7045 11.66C 86.0645 12.14 86.5445 12.38 87.1445 12.38ZM 96.0045 20.12C 95.0312 20.12 94.2445 19.7733 93.6445 19.08C 93.0579 18.3733 92.7645 17.4467 92.7645 16.3C 92.7645 15.1533 93.0579 14.2333 93.6445 13.54C 94.2445 12.8333 95.0312 12.48 96.0045 12.48C 96.9779 12.48 97.7645 12.8333 98.3645 13.54C 98.9645 14.2467 99.2645 15.1667 99.2645 16.3C 99.2645 17.4333 98.9645 18.3533 98.3645 19.06C 97.7645 19.7667 96.9779 20.12 96.0045 20.12ZM 96.0045 18.98C 96.6045 18.98 97.0779 18.74 97.4245 18.26C 97.7845 17.78 97.9645 17.1267 97.9645 16.3C 97.9645 15.4733 97.7845 14.82 97.4245 14.34C 97.0779 13.86 96.6045 13.62 96.0045 13.62C 95.3912 13.62 94.9112 13.86 94.5645 14.34C 94.2179 14.8067 94.0445 15.46 94.0445 16.3C 94.0445 17.14 94.2179 17.8 94.5645 18.28C 94.9112 18.7467 95.3912 18.98 96.0045 18.98Z"/>
<path id="path19_fill" fill-rule="evenodd" d="M 2 0C 0.895508 0 0 0.895386 0 2L 0 18C 0 19.1046 0.895508 20 2 20L 56 20C 57.1045 20 58 19.1046 58 18L 58 2C 58 0.895386 57.1045 0 56 0L 2 0ZM 60 15L 59 15L 59 7L 60 7C 61.1045 7 62 7.89539 62 9L 62 13C 62 14.1046 61.1045 15 60 15Z"/>
<path id="path20_stroke_2x" d="M 59 15L 57 15L 57 17L 59 17L 59 15ZM 59 7L 59 5L 57 5L 57 7L 59 7ZM 2 2L 2 -2C -0.208982 -2 -2 -0.209263 -2 2L 2 2ZM 2 18L 2 2L -2 2L -2 18L 2 18ZM 2 18L -2 18C -2 20.2093 -0.208982 22 2 22L 2 18ZM 56 18L 2 18L 2 22L 56 22L 56 18ZM 56 18L 56 22C 58.209 22 60 20.2093 60 18L 56 18ZM 56 2L 56 18L 60 18L 60 2L 56 2ZM 56 2L 60 2C 60 -0.209263 58.209 -2 56 -2L 56 2ZM 2 2L 56 2L 56 -2L 2 -2L 2 2ZM 59 17L 60 17L 60 13L 59 13L 59 17ZM 57 7L 57 15L 61 15L 61 7L 57 7ZM 60 5L 59 5L 59 9L 60 9L 60 5ZM 64 9C 64 6.79074 62.209 5 60 5L 60 9L 64 9ZM 64 13L 64 9L 60 9L 60 13L 64 13ZM 60 17C 62.209 17 64 15.2093 64 13L 60 13L 60 17Z"/>
<path id="path21_fill" d="M 0 0L 54 0L 54 16L 0 16L 0 0Z"/>
<path id="path22_fill" d="M 7.56 5C 9.37333 5 10.8 5.43333 11.84 6.3C 12.88 7.16667 13.4 8.36 13.4 9.88C 13.4 11.4 12.88 12.5933 11.84 13.46C 10.8 14.3267 9.37333 14.76 7.56 14.76L 4.1 14.76L 4.1 19L 2.1 19L 2.1 5L 7.56 5ZM 7.5 13.02C 8.76667 13.02 9.73333 12.7533 10.4 12.22C 11.0667 11.6733 11.4 10.8933 11.4 9.88C 11.4 8.86667 11.0667 8.09333 10.4 7.56C 9.73333 7.01333 8.76667 6.74 7.5 6.74L 4.1 6.74L 4.1 13.02L 7.5 13.02Z"/>
<path id="path23_fill" d="M 11.46 19L 8.44 14.7C 8.06667 14.7267 7.77333 14.74 7.56 14.74L 4.1 14.74L 4.1 19L 2.1 19L 2.1 5L 7.56 5C 9.37333 5 10.8 5.43333 11.84 6.3C 12.88 7.16667 13.4 8.36 13.4 9.88C 13.4 10.96 13.1333 11.88 12.6 12.64C 12.0667 13.4 11.3067 13.9533 10.32 14.3L 13.64 19L 11.46 19ZM 7.5 13.04C 8.76667 13.04 9.73333 12.7667 10.4 12.22C 11.0667 11.6733 11.4 10.8933 11.4 9.88C 11.4 8.86667 11.0667 8.09333 10.4 7.56C 9.73333 7.01333 8.76667 6.74 7.5 6.74L 4.1 6.74L 4.1 13.04L 7.5 13.04Z"/>
<path id="path24_fill" d="M 14.14 5L 14.14 19L 12.5 19L 4.1 8.56L 4.1 19L 2.1 19L 2.1 5L 3.74 5L 12.14 15.44L 12.14 5L 14.14 5Z"/>
<path id="path25_fill" d="M 2.1 5L 8 5C 9.48 5 10.7933 5.29333 11.94 5.88C 13.0867 6.46667 13.9733 7.29333 14.6 8.36C 15.24 9.41333 15.56 10.6267 15.56 12C 15.56 13.3733 15.24 14.5933 14.6 15.66C 13.9733 16.7133 13.0867 17.5333 11.94 18.12C 10.7933 18.7067 9.48 19 8 19L 2.1 19L 2.1 5ZM 7.88 17.26C 9.01333 17.26 10.0067 17.04 10.86 16.6C 11.7267 16.16 12.3933 15.5467 12.86 14.76C 13.3267 13.96 13.56 13.04 13.56 12C 13.56 10.96 13.3267 10.0467 12.86 9.26C 12.3933 8.46 11.7267 7.84 10.86 7.4C 10.0067 6.96 9.01333 6.74 7.88 6.74L 4.1 6.74L 4.1 17.26L 7.88 17.26Z"/>
<path id="path26_fill" d="M 30.2948 20L 30.2748 9.8L 25.2148 18.3L 24.2948 18.3L 19.2348 9.86L 19.2348 20L 17.3148 20L 17.3148 6L 18.9548 6L 24.7948 15.84L 30.5548 6L 32.1948 6L 32.2148 20L 30.2948 20ZM 41.8764 6C 43.6897 6 45.1164 6.43333 46.1564 7.3C 47.1964 8.16667 47.7164 9.36 47.7164 10.88C 47.7164 12.4 47.1964 13.5933 46.1564 14.46C 45.1164 15.3267 43.6897 15.76 41.8764 15.76L 38.4164 15.76L 38.4164 20L 36.4164 20L 36.4164 6L 41.8764 6ZM 41.8164 14.02C 43.0831 14.02 44.0497 13.7533 44.7164 13.22C 45.3831 12.6733 45.7164 11.8933 45.7164 10.88C 45.7164 9.86667 45.3831 9.09333 44.7164 8.56C 44.0497 8.01333 43.0831 7.74 41.8164 7.74L 38.4164 7.74L 38.4164 14.02L 41.8164 14.02ZM 62.6947 6L 62.6947 20L 60.6947 20L 60.6947 13.76L 52.6547 13.76L 52.6547 20L 50.6547 20L 50.6547 6L 52.6547 6L 52.6547 12.02L 60.6947 12.02L 60.6947 6L 62.6947 6Z"/>
<path id="path27_fill" d="M 0 0L 540 0L 540 2L 0 2L 0 0Z"/>
<path id="path28_fill" d="M 0 3C 0 1.34315 1.34315 0 3 0L 38 0C 39.6569 0 41 1.34315 41 3C 41 4.65685 39.6569 6 38 6L 3 6C 1.34315 6 0 4.65685 0 3Z"/>
<path id="path29_fill" d="M 253.08 42.25C 258.14 42.25 262.65 43.2033 266.61 45.11C 270.643 47.0167 273.797 49.7667 276.07 53.36C 278.343 56.88 279.48 60.95 279.48 65.57C 279.48 70.41 278.27 74.6633 275.85 78.33C 273.503 81.9967 270.24 84.8567 266.06 86.91C 261.953 88.89 257.333 89.88 252.2 89.88C 241.86 89.88 233.867 86.5433 228.22 79.87C 222.647 73.1967 219.86 63.7367 219.86 51.49C 219.86 42.91 221.363 35.6133 224.37 29.6C 227.45 23.5133 231.703 18.93 237.13 15.85C 242.63 12.6967 249.01 11.12 256.27 11.12C 260.01 11.12 263.53 11.5233 266.83 12.33C 270.13 13.0633 272.99 14.1633 275.41 15.63L 271.23 24.21C 267.563 21.79 262.65 20.58 256.49 20.58C 248.497 20.58 242.227 23.0733 237.68 28.06C 233.133 32.9733 230.86 40.16 230.86 49.62C 230.86 50.7933 230.897 51.71 230.97 52.37C 233.17 49.07 236.177 46.5767 239.99 44.89C 243.877 43.13 248.24 42.25 253.08 42.25ZM 251.76 80.97C 256.82 80.97 260.927 79.6133 264.08 76.9C 267.233 74.1867 268.81 70.5567 268.81 66.01C 268.81 61.4633 267.197 57.87 263.97 55.23C 260.817 52.5167 256.563 51.16 251.21 51.16C 247.763 51.16 244.683 51.82 241.97 53.14C 239.33 54.46 237.24 56.2567 235.7 58.53C 234.233 60.8033 233.5 63.3333 233.5 66.12C 233.5 68.8333 234.197 71.3267 235.59 73.6C 237.057 75.8 239.147 77.5967 241.86 78.99C 244.647 80.31 247.947 80.97 251.76 80.97ZM 317.231 44.34C 324.784 45.0733 330.541 47.42 334.501 51.38C 338.461 55.2667 340.441 60.2533 340.441 66.34C 340.441 70.74 339.341 74.7367 337.141 78.33C 334.941 81.85 331.641 84.6733 327.241 86.8C 322.914 88.8533 317.597 89.88 311.291 89.88C 305.791 89.88 300.511 89.0733 295.451 87.46C 290.391 85.7733 286.247 83.4633 283.021 80.53L 288.081 71.84C 290.721 74.3333 294.094 76.35 298.201 77.89C 302.307 79.3567 306.671 80.09 311.291 80.09C 317.011 80.09 321.447 78.88 324.601 76.46C 327.827 74.04 329.441 70.7033 329.441 66.45C 329.441 62.1967 327.864 58.8967 324.711 56.55C 321.557 54.2033 316.791 53.03 310.411 53.03L 304.251 53.03L 304.251 45.33L 323.611 21.57L 286.541 21.57L 286.541 12L 337.361 12L 337.361 19.48L 317.231 44.34Z"/>
<path id="path30_stroke" d="M 22 0L 22.1425 -1.99492L 22.0713 -2L 22 -2L 22 0ZM 22 28L 22 30L 22.0713 30L 22.1425 29.9949L 22 28ZM 11.6094 6.6641C 12.5285 6.0514 12.7768 4.80966 12.1641 3.8906C 11.5514 2.97154 10.3097 2.72319 9.3906 3.3359L 11.6094 6.6641ZM -1.1094 10.3359C -2.02846 10.9486 -2.27681 12.1903 -1.6641 13.1094C -1.0514 14.0285 0.190343 14.2768 1.1094 13.6641L -1.1094 10.3359ZM 11.6094 12.6641C 12.5285 12.0514 12.7768 10.8097 12.1641 9.8906C 11.5514 8.97154 10.3097 8.72319 9.3906 9.3359L 11.6094 12.6641ZM -1.1094 16.3359C -2.02846 16.9486 -2.27681 18.1903 -1.6641 19.1094C -1.0514 20.0285 0.190343 20.2768 1.1094 19.6641L -1.1094 16.3359ZM 11.6094 18.6641C 12.5285 18.0514 12.7768 16.8097 12.1641 15.8906C 11.5514 14.9715 10.3097 14.7232 9.3906 15.3359L 11.6094 18.6641ZM -1.1094 22.3359C -2.02846 22.9486 -2.27681 24.1903 -1.6641 25.1094C -1.0514 26.0285 0.190343 26.2768 1.1094 25.6641L -1.1094 22.3359ZM 11.6094 24.6641C 12.5285 24.0514 12.7768 22.8097 12.1641 21.8906C 11.5514 20.9715 10.3097 20.7232 9.3906 21.3359L 11.6094 24.6641ZM -1.1094 28.3359C -2.02846 28.9486 -2.27681 30.1903 -1.6641 31.1094C -1.0514 32.0285 0.190343 32.2768 1.1094 31.6641L -1.1094 28.3359ZM 21.8575 1.99492C 23.7981 2.13353 26.9195 3.1149 29.5213 5.1406C 32.0645 7.12067 34 9.99741 34 14L 38 14C 38 8.50259 35.2688 4.546 31.9787 1.9844C 28.7471 -0.531571 24.8685 -1.8002 22.1425 -1.99492L 21.8575 1.99492ZM 22 -2C 19.9134 -2 17.8346 -1.46773 16.5009 0.625179C 15.3504 2.43044 15 5.08312 15 8.5L 19 8.5C 19 5.11688 19.3996 3.51956 19.8741 2.77482C 20.1654 2.31773 20.5866 2 22 2L 22 -2ZM 22.1425 29.9949C 24.8685 29.8002 28.7471 28.5316 31.9787 26.0156C 35.2688 23.454 38 19.4974 38 14L 34 14C 34 18.0026 32.0645 20.8793 29.5213 22.8594C 26.9195 24.8851 23.7981 25.8665 21.8575 26.0051L 22.1425 29.9949ZM 22 26C 20.5866 26 20.1654 25.6823 19.8741 25.2252C 19.3996 24.4804 19 22.8831 19 19.5L 15 19.5C 15 22.9169 15.3504 25.5696 16.5009 27.3748C 17.8346 29.4677 19.9134 30 22 30L 22 26ZM 19 19.5L 19 8.5L 15 8.5L 15 19.5L 19 19.5ZM 9.3906 3.3359L -1.1094 10.3359L 1.1094 13.6641L 11.6094 6.6641L 9.3906 3.3359ZM 9.3906 9.3359L -1.1094 16.3359L 1.1094 19.6641L 11.6094 12.6641L 9.3906 9.3359ZM 9.3906 15.3359L -1.1094 22.3359L 1.1094 25.6641L 11.6094 18.6641L 9.3906 15.3359ZM 9.3906 21.3359L -1.1094 28.3359L 1.1094 31.6641L 11.6094 24.6641L 9.3906 21.3359Z"/>
<path id="path31_stroke" d="M 6.5 0C 6.5 -1.10457 5.60457 -2 4.5 -2C 3.39543 -2 2.5 -1.10457 2.5 0L 6.5 0ZM 5.5 27L 4.15465 28.4799C 4.5228 28.8146 5.00247 29 5.5 29L 5.5 27ZM 31.5 0C 31.5 -1.10457 30.6046 -2 29.5 -2C 28.3954 -2 27.5 -1.10457 27.5 0L 31.5 0ZM 28.5 27L 28.5 29C 28.9975 29 29.4772 28.8146 29.8453 28.4799L 28.5 27ZM 2.5 0C 2.5 0.5 2.5 2.7 2.5 3.5L 6.5 3.5C 6.5 2.7 6.5 0.5 6.5 0L 2.5 0ZM 2.5 3.5C 2.5 3.01779 2.71715 2.75598 2.59165 2.96515C 2.51104 3.10261 2.38627 3.27459 2.18129 3.55544C 1.76717 4.12301 1.1528 4.94652 0.535014 5.97101C -0.655725 7.9645 -1.95916 11.0979 -2 15L 2 15C 1.95916 11.9021 2.90572 9.7855 3.96499 8.02899C 4.4722 7.17848 4.98283 6.50199 5.41246 5.91331C 5.62936 5.61603 5.85615 5.29583 6.02163 5.02313C 6.14222 4.82214 6.5 4.23221 6.5 3.5L 2.5 3.5ZM -2 15C -2 21.3865 2.10431 26.6159 4.15465 28.4799L 6.84535 25.5201C 5.22902 24.0507 2 19.8135 2 15L -2 15ZM 27.5 0L 27.5 3.5L 31.5 3.5L 31.5 0L 27.5 0ZM 27.5 3.5C 27.5 4.23221 27.8578 4.82214 27.9784 5.02313C 28.1438 5.29583 28.3706 5.61603 28.5875 5.91331C 29.0172 6.50199 29.5278 7.17848 30.035 8.02899C 31.0943 9.7855 32.0408 11.9021 32 15L 36 15C 35.9592 11.0979 34.6557 7.9645 33.465 5.97101C 32.8472 4.94652 32.2328 4.12301 31.8187 3.55544C 31.6137 3.27459 31.489 3.10261 31.4083 2.96515C 31.2828 2.75598 31.5 3.01779 31.5 3.5L 27.5 3.5ZM 32 15C 32 19.8135 28.771 24.0507 27.1547 25.5201L 29.8453 28.4799C 31.8957 26.6159 36 21.3865 36 15L 32 15ZM 28.5 25L 5.5 25L 5.5 29L 28.5 29L 28.5 25Z"/>
<path id="path32_stroke" d="M 13.5 4L 13.5 0L 9.5 0L 9.5 4L 13.5 4ZM 7.5 4L 7.5 0L 3.5 0L 3.5 4L 7.5 4ZM 19.5 4L 19.5 0L 15.5 0L 15.5 4L 19.5 4ZM 25 4L 25 0L 21 0L 21 4L 25 4ZM 2 4L 2 0L -2 0L -2 4L 2 4Z"/>
<path id="path33_stroke" d="M 2 0C 2 -1.10457 1.10457 -2 0 -2C -1.10457 -2 -2 -1.10457 -2 0L 2 0ZM -2 12C -2 13.1046 -1.10457 14 0 14C 1.10457 14 2 13.1046 2 12L -2 12ZM -2 18.5C -2 19.6046 -1.10457 20.5 0 20.5C 1.10457 20.5 2 19.6046 2 18.5L -2 18.5ZM 2 18C 2 16.8954 1.10457 16 0 16C -1.10457 16 -2 16.8954 -2 18L 2 18ZM -2 0L -2 12L 2 12L 2 0L -2 0ZM 2 18.5L 2 18L -2 18L -2 18.5L 2 18.5Z"/>
</defs>
</svg>
