<svg width="339" height="245" viewBox="0 0 339 245" version="1.1" xmlns="http://www.w3.org/2000/svg" xmlns:xlink="http://www.w3.org/1999/xlink">
<title>Model 3</title>
<desc>Created using Figma</desc>
<g id="Canvas" transform="translate(6832 -6450)">
<g id="Model 3">
<g id="shadow" filter="url(#filter0_f)">
<use xlink:href="#path0_fill" transform="translate(-6728 6623)"/>
</g>
<g id="Headlights">
<g id="Ellipse" filter="url(#filter1_f)">
<use xlink:href="#path1_fill" transform="translate(-6812 6470)" fill="url(#paint1_linear)" fill-opacity="0.4"/>
</g>
<g id="Ellipse" filter="url(#filter2_f)">
<use xlink:href="#path2_fill" transform="translate(-6747 6518)" fill="#FFFFFF" fill-opacity="0.3"/>
</g>
</g>
<g id="Car">
<g id="Vector">
<use xlink:href="#path3_fill" transform="translate(-6730.5 6533.5)" fill="#F7F7F7"/>
</g>
<g id="Intersect">
<use xlink:href="#path4_fill" transform="translate(-6723.91 6533.5)" fill="#FFFFFF"/>
</g>
<g id="Group">
<g id="Vector 2">
<use xlink:href="#path5_fill" transform="translate(-6714 6542.5)" fill="#252525"/>
<mask id="mask0_outline_out">
<rect id="mask0_outline_inv" fill="white" x="-1" y="-1" width="10" height="44" transform="translate(-6714 6542.5)"/>
<use xlink:href="#path5_fill" fill="black" transform="translate(-6714 6542.5)"/>
</mask>
<g mask="url(#mask0_outline_out)">
<use xlink:href="#path6_stroke_2x" transform="translate(-6714 6542.5)" fill="#A3A3A3"/>
</g>
</g>
<g id="Vector 3">
<use xlink:href="#path7_fill" transform="translate(-6703 6537)" fill="#545454"/>
<use xlink:href="#path7_fill" transform="translate(-6703 6537)" fill="url(#paint8_radial)"/>
</g>
<g id="Rectangle 5" filter="url(#filter3_f)">
<use xlink:href="#path8_fill" transform="translate(-6693 6538)" fill="url(#paint9_radial)" fill-opacity="0.3"/>
</g>
<g id="Vector 2">
<use xlink:href="#path5_fill" transform="matrix(-1 0 0 1 -6613.5 6542.5)" fill="#252525"/>
<mask id="mask1_outline_out">
<rect id="mask1_outline_inv" fill="white" x="-1" y="-1" width="10" height="44" transform="matrix(-1 0 0 1 -6613.5 6542.5)"/>
<use xlink:href="#path5_fill" fill="black" transform="matrix(-1 0 0 1 -6613.5 6542.5)"/>
</mask>
<g mask="url(#mask1_outline_out)">
<use xlink:href="#path6_stroke_2x" transform="matrix(-1 0 0 1 -6613.5 6542.5)" fill="#A3A3A3"/>
</g>
</g>
<g id="Vector 4">
<use xlink:href="#path9_stroke" transform="translate(-6701.5 6555)" fill="#000000" fill-opacity="0.4"/>
</g>
<g id="Subtract">
<use xlink:href="#path10_fill" transform="translate(-6703 6586)" fill="#F2F2F2" fill-opacity="0.1"/>
</g>
<g id="Rectangle 4">
<use xlink:href="#path11_fill" transform="translate(-6677.5 6599)" fill="#D0021B" fill-opacity="0.4"/>
</g>
</g>
<g id="Group">
<g id="Vector 6">
<use xlink:href="#path12_fill" transform="translate(-6724 6612.5)" fill="#6D0000"/>
</g>
<g id="Vector 7" filter="url(#filter4_f)">
<use xlink:href="#path13_stroke" transform="translate(-6722.53 6615.95)" fill="#FB4E4E"/>
</g>
</g>
<g id="Group">
<g id="Vector 6">
<use xlink:href="#path12_fill" transform="matrix(-1 0 0 1 -6603.5 6612.5)" fill="#6D0000"/>
</g>
<g id="Vector 7" filter="url(#filter5_f)">
<use xlink:href="#path13_stroke" transform="matrix(-1 0 0 1 -6604.97 6615.95)" fill="#FB4E4E"/>
</g>
</g>
<g id="Vector 8">
<use xlink:href="#path14_stroke" transform="translate(-6709 6616)" fill="#000000" fill-opacity="0.4"/>
</g>
<g id="Vector 15" filter="url(#filter6_f)">
<use xlink:href="#path15_fill" transform="translate(-6715 6538)" fill="#000000" fill-opacity="0.1"/>
</g>
<g id="Rectangle 6">
<use xlink:href="#path16_fill" transform="translate(-6675 6626)" fill="#E9E9E9"/>
<mask id="mask2_outline_ins">
<use xlink:href="#path16_fill" fill="white" transform="translate(-6675 6626)"/>
</mask>
<g mask="url(#mask2_outline_ins)">
<use xlink:href="#path17_stroke_2x" transform="translate(-6675 6626)" fill="#CCCCCC"/>
</g>
</g>
<g id="Tesla Logo">
<g id="Tesla Logo">
<use xlink:href="#path18_fill" transform="translate(-6667 6615)" fill="#888585"/>
</g>
</g>
<g id="Vector 10">
<use xlink:href="#path19_fill" transform="translate(-6696.5 6611)" fill="#000000" fill-opacity="0.1"/>
</g>
<g id="Vector 10">
<use xlink:href="#path19_fill" transform="matrix(1 0 0 -1 -6696.5 6627)" fill="#C9C9C9"/>
</g>
<g id="Vector 11">
<use xlink:href="#path20_fill" transform="translate(-6720 6654.92)" fill="#510000"/>
</g>
<g id="Vector 11">
<use xlink:href="#path20_fill" transform="matrix(-1 0 0 1 -6607 6654.92)" fill="#510000"/>
</g>
<g id="Vector 12">
<use xlink:href="#path21_stroke" transform="translate(-6715 6614.5)" fill="#FFFFFF"/>
</g>
<g id="Group">
<g id="Vector 13">
<use xlink:href="#path22_fill" transform="translate(-6732 6551)" fill="#FFFFFF"/>
</g>
<g id="Intersect">
<use xlink:href="#path23_fill" transform="translate(-6731.67 6554.5)" fill="#A8A5A5"/>
</g>
</g>
<g id="Group">
<g id="Vector 13">
<use xlink:href="#path22_fill" transform="matrix(-1 0 0 1 -6593.5 6551)" fill="#FFFFFF"/>
</g>
<g id="Intersect">
<use xlink:href="#path24_fill" transform="matrix(-1 0 0 1 -6593.83 6554.5)" fill="#A8A5A5"/>
</g>
</g>
<g id="Rectangle 7" filter="url(#filter7_f)">
<use xlink:href="#path25_fill" transform="translate(-6714 6635)" fill="#000000" fill-opacity="0.1"/>
</g>
</g>
</g>
</g>
<defs>
<filter id="filter0_f" filterUnits="userSpaceOnUse" x="-6748" y="6603" width="171" height="92" color-interpolation-filters="sRGB">
<feFlood flood-opacity="0" result="BackgroundImageFix"/>
<feBlend mode="normal" in="SourceGraphic" in2="BackgroundImageFix" result="shape"/>
<feGaussianBlur stdDeviation="10" result="effect1_foregroundBlur"/>
</filter>
<filter id="filter1_f" filterUnits="userSpaceOnUse" x="-6832" y="6450" width="339" height="125" color-interpolation-filters="sRGB">
<feFlood flood-opacity="0" result="BackgroundImageFix"/>
<feBlend mode="normal" in="SourceGraphic" in2="BackgroundImageFix" result="shape"/>
<feGaussianBlur stdDeviation="10" result="effect1_foregroundBlur"/>
</filter>
<filter id="filter2_f" filterUnits="userSpaceOnUse" x="-6767" y="6497" width="209" height="80" color-interpolation-filters="sRGB">
<feFlood flood-opacity="0" result="BackgroundImageFix"/>
<feBlend mode="normal" in="SourceGraphic" in2="BackgroundImageFix" result="shape"/>
<feGaussianBlur stdDeviation="10" result="effect1_foregroundBlur"/>
</filter>
<filter id="filter3_f" filterUnits="userSpaceOnUse" x="-6695" y="6536" width="62" height="17" color-interpolation-filters="sRGB">
<feFlood flood-opacity="0" result="BackgroundImageFix"/>
<feBlend mode="normal" in="SourceGraphic" in2="BackgroundImageFix" result="shape"/>
<feGaussianBlur stdDeviation="1" result="effect1_foregroundBlur"/>
</filter>
<filter id="filter4_f" filterUnits="userSpaceOnUse" x="-6725" y="6614" width="31" height="12" color-interpolation-filters="sRGB">
<feFlood flood-opacity="0" result="BackgroundImageFix"/>
<feBlend mode="normal" in="SourceGraphic" in2="BackgroundImageFix" result="shape"/>
<feGaussianBlur stdDeviation="0.5" result="effect1_foregroundBlur"/>
</filter>
<filter id="filter5_f" filterUnits="userSpaceOnUse" x="-6633" y="6614" width="30" height="12" color-interpolation-filters="sRGB">
<feFlood flood-opacity="0" result="BackgroundImageFix"/>
<feBlend mode="normal" in="SourceGraphic" in2="BackgroundImageFix" result="shape"/>
<feGaussianBlur stdDeviation="0.5" result="effect1_foregroundBlur"/>
</filter>
<filter id="filter6_f" filterUnits="userSpaceOnUse" x="-6719" y="6534" width="114" height="96" color-interpolation-filters="sRGB">
<feFlood flood-opacity="0" result="BackgroundImageFix"/>
<feBlend mode="normal" in="SourceGraphic" in2="BackgroundImageFix" result="shape"/>
<feGaussianBlur stdDeviation="2" result="effect1_foregroundBlur"/>
</filter>
<filter id="filter7_f" filterUnits="userSpaceOnUse" x="-6718" y="6631" width="108" height="22" color-interpolation-filters="sRGB">
<feFlood flood-opacity="0" result="BackgroundImageFix"/>
<feBlend mode="normal" in="SourceGraphic" in2="BackgroundImageFix" result="shape"/>
<feGaussianBlur stdDeviation="2" result="effect1_foregroundBlur"/>
</filter>
<linearGradient id="paint1_linear" x1="0" y1="0" x2="1" y2="0" gradientUnits="userSpaceOnUse" gradientTransform="matrix(0.543636 73.5577 -258.75 1.92102 278.331 10.4818)">
<stop offset="0.00552486" stop-color="#FFFFFF" stop-opacity="0.2"/>
<stop offset="1" stop-color="#FFFFFF"/>
</linearGradient>
<radialGradient id="paint8_radial" cx="0.5" cy="0.5" r="0.5" gradientUnits="userSpaceOnUse" gradientTransform="matrix(4.20962e-13 97 -278.428 -8.0074e-14 177.714 -19.5)">
<stop offset="0" stop-color="#000000" stop-opacity="0"/>
<stop offset="1"/>
</radialGradient>
<radialGradient id="paint9_radial" cx="0.5" cy="0.5" r="0.5" gradientUnits="userSpaceOnUse" gradientTransform="matrix(2.61462e-14 11.9167 -69.462 7.72202e-13 63.731 1.08333)">
<stop offset="0" stop-color="#FFFFFF"/>
<stop offset="0.98895" stop-color="#FFFFFF" stop-opacity="0"/>
</radialGradient>
<path id="path0_fill" d="M 131 26C 131 40.3594 101.675 52 65.5 52C 29.3253 52 0 40.3594 0 26C 0 11.6406 29.3253 0 65.5 0C 101.675 0 131 11.6406 131 26Z"/>
<path id="path1_fill" d="M 299 42.5C 299 42.5 232.067 85 149.5 85C 66.9334 85 0 42.5 0 42.5C 0 19.0279 66.9334 0 149.5 0C 232.067 0 299 19.0279 299 42.5Z"/>
<path id="path2_fill" d="M 169 13.5034C 169 27.5867 131.168 39.0034 84.5 39.0034C 37.8319 39.0034 0 27.5867 0 13.5034C 0 -0.579848 37.8319 0.00341289 84.5 0.00341289C 131.168 0.00341289 169 -0.579848 169 13.5034Z"/>
<path id="path3_fill" d="M 22.5 128.5C 19.3 128.9 17.8333 130.667 17.5 131.5L 8 131.5C 5.33333 128.667 0 120.2 0 109C 0 95 0 86.5 2 83.5C 4 80.5 10 59.5 11 49C 12 38.5 14 16 16.5 11.5C 19 7 22 3 26.5 1.5C 31 0 34 0 36 0C 37.6 0 39.6667 1.66667 40.5 2.5C 46 2.16667 59.9 1.5 67.5 1.5L 68 1.5C 75.6 1.5 89.5 2.16667 95 2.5C 95.8333 1.66667 97.9 0 99.5 0C 101.5 0 104.5 0 109 1.5C 113.5 3 116.5 7 119 11.5C 121.5 16 123.5 38.5 124.5 49C 125.5 59.5 131.5 80.5 133.5 83.5C 135.5 86.5 135.5 95 135.5 109C 135.5 120.2 130.167 128.667 127.5 131.5L 118 131.5C 117.667 130.667 116.2 128.9 113 128.5C 109 128 75 127.5 68 127.5L 67.5 127.5C 60.5 127.5 26.5 128 22.5 128.5Z"/>
<path id="path4_fill" fill-rule="evenodd" d="M -0.000488281 70.1187C 4.4917 69.1902 10.7671 66.5967 12.4131 61C 13.0659 58.7808 13.582 56.0503 14.1313 53.147C 15.6855 44.9292 17.502 35.3252 23.4131 32L 97.4131 32C 103.324 35.3252 105.141 44.9292 106.695 53.147C 107.244 56.0503 107.76 58.7808 108.413 61C 110.263 67.29 117.959 69.7866 122.401 70.3896C 120.394 63.1497 118.445 54.5879 117.913 49L 117.731 47.0786C 116.682 35.9758 114.77 15.7417 112.413 11.5C 109.913 7 106.913 3 102.413 1.5C 97.9131 0 94.9131 0 92.9131 0C 91.313 0 89.2463 1.66675 88.4131 2.5C 82.9131 2.16675 69.0132 1.5 61.4131 1.5L 60.9131 1.5C 53.313 1.5 39.4131 2.16675 33.9131 2.5C 33.0796 1.66675 31.0132 0 29.4131 0C 27.4131 0 24.4131 0 19.9131 1.5C 15.4131 3 12.4131 7 9.91309 11.5C 7.55664 15.7417 5.64453 35.9758 4.59521 47.0786L 4.41309 49C 3.8877 54.5183 1.98096 62.937 -0.000488281 70.1187Z"/>
<path id="path5_fill" d="M 8 37L 8 0C 3 5 0 21 0 30C 0 39 3 42.5 4.5 42.5C 6 42.5 8 40 8 37Z"/>
<path id="path6_stroke_2x" d="M 8 0L 8.5 0C 8.5 -0.202231 8.37818 -0.384549 8.19134 -0.46194C 8.0045 -0.53933 7.78945 -0.496552 7.64645 -0.353553L 8 0ZM 7.5 0L 7.5 37L 8.5 37L 8.5 0L 7.5 0ZM 7.5 37C 7.50758 38.4132 7.05547 39.6461 6.40048 40.5917C 5.74387 41.5468 4.99956 42 4.5 42L 4.5 43C 5.50044 43 6.50613 42.2032 7.22452 41.1583C 7.94453 40.1039 8.49242 38.5868 8.5 37L 7.5 37ZM 4.5 42C 4.30779 42 3.95686 41.8771 3.50889 41.4504C 3.04908 41.0155 2.58757 40.3721 2.14023 39.4128C 1.24204 37.4966 0.5 34.4487 0.5 30L -0.5 30C -0.5 34.5513 0.257961 37.7534 1.23477 39.8372C 1.72493 40.8779 2.29467 41.672 2.81923 42.1746C 3.35564 42.6854 3.94221 43 4.5 43L 4.5 42ZM 0.5 30C 0.499109 25.5298 1.24218 19.3381 2.61129 13.6163C 3.98649 7.86547 5.96288 2.74423 8.35355 0.353553L 7.64645 -0.353553C 5.03712 2.25577 3.01351 7.63453 1.63871 13.3837C 0.257818 19.1619 -0.499109 25.4702 -0.5 30L 0.5 30Z"/>
<path id="path7_fill" d="M 0 52L 0 4.5C 3.33333 3 14.2 0 31 0L 47 0C 63.8 0 74.6667 3 78 4.5L 78 52C 78 59.5 71.5 66 52 66L 26 66C 6.5 66 0 59.5 0 52Z"/>
<path id="path8_fill" d="M 0 0L 58 0L 58 13L 0 13L 0 0Z"/>
<path id="path9_stroke" d="M -0.231283 5.55671C -0.476107 5.68444 -0.571027 5.98646 -0.443292 6.23128C -0.315558 6.47611 -0.0135406 6.57103 0.231283 6.44329L -0.231283 5.55671ZM 74.2764 6.44721C 74.5234 6.57071 74.8237 6.4706 74.9472 6.22361C 75.0707 5.97662 74.9706 5.67628 74.7236 5.55279L 74.2764 6.44721ZM 0.231283 6.44329C 3.96978 4.49277 16.6491 0.5 37 0.5L 37 -0.5C 16.5509 -0.5 3.69689 3.50723 -0.231283 5.55671L 0.231283 6.44329ZM 37 0.5C 57.3495 0.5 70.3666 4.4923 74.2764 6.44721L 74.7236 5.55279C 70.6334 3.5077 57.4505 -0.5 37 -0.5L 37 0.5Z"/>
<path id="path10_fill" fill-rule="evenodd" d="M 0 0L 0 3C 0 10.5 6.5 17 26 17L 52 17C 71.5 17 78 10.5 78 3L 78 0C 78 7.5 71.5 14 52 14L 26 14C 6.5 14 0 7.5 0 0Z"/>
<path id="path11_fill" d="M 0 0L 26 0L 26 2L 0 2L 0 0Z"/>
<path id="path12_fill" d="M 23.5 3.5C 27.1898 3.5 29.7311 7.48511 30.9467 10.4424C 31.2326 11.138 30.6146 11.8314 29.8716 11.7148C 27.7633 11.384 24.5357 11 21.5 11C 6.5 11 16 13.5 8.5 13.5C 6 13.5 0 13.5 0 8.5C 0 5.17208 1.15365 2.30562 2.02123 0.764452C 2.27299 0.317241 2.83824 0.19286 3.29901 0.418838C 4.84822 1.17862 7.6968 2.33936 11 3C 16 4 18 3.5 23.5 3.5Z"/>
<path id="path13_stroke" d="M 26.04 6.65377C 26.0999 6.92334 26.367 7.0933 26.6366 7.0334C 26.9061 6.9735 27.0761 6.70641 27.0162 6.43684L 26.04 6.65377ZM 22.0281 1.54531L 22.0988 1.05033L 22.0281 1.54531ZM 3.52813 8.04541L 3.44593 8.53861L 3.52813 8.04541ZM 11.0733 8.04333C 11.3483 8.01833 11.551 7.77513 11.526 7.50012C 11.501 7.22511 11.2578 7.02244 10.9827 7.04744L 11.0733 8.04333ZM 10.1745 5.19183C 9.9792 5.38709 9.9792 5.70368 10.1745 5.89894C 10.3697 6.0942 10.6863 6.0942 10.8816 5.89894L 10.1745 5.19183ZM 5.38157 3.39894C 5.57683 3.20368 5.57683 2.88709 5.38157 2.69183C 5.18631 2.49657 4.86973 2.49657 4.67446 2.69183L 5.38157 3.39894ZM 27.0162 6.43684C 26.8411 5.65409 26.3775 4.40981 25.6081 3.33951C 24.8272 2.26135 23.6787 1.27602 22.0988 1.05033L 21.9574 2.04028C 23.1775 2.21459 24.1124 2.97926 24.7982 3.9261C 25.4954 4.8808 25.8818 5.93652 26.04 6.65377L 27.0162 6.43684ZM 22.0988 1.05033C 20.3004 0.795804 17.8832 0.92071 15.5771 0.983005C 13.2415 1.04614 11.0864 1.03776 9.68613 0.570998L 9.3699 1.51968C 10.9696 2.05292 13.3146 2.04453 15.6041 1.98264C 17.923 1.91992 20.2558 1.79481 21.9574 2.04028L 22.0988 1.05033ZM 9.68613 0.570998C 6.67174 -0.433799 4.02009 -0.990436 1.34238 0.0808718L 1.71384 1.00932C 4.03613 0.0802135 6.3843 0.524478 9.3699 1.51968L 9.68613 0.570998ZM 1.34238 0.0808718C 0.545749 0.399591 0.025871 1.08933 -0.248951 1.88132C -0.509319 2.64643 -0.564594 3.61941 -0.400835 4.51247C -0.0623229 6.31794 1.17833 8.16068 3.44593 8.53861L 3.61033 7.55221C 1.87787 7.26347 0.868523 5.85616 0.582038 4.32819C 0.433299 3.55453 0.471778 2.83995 0.695789 2.20915C 0.905346 1.60523 1.26047 1.19071 1.71384 1.00932L 1.34238 0.0808718ZM 3.44593 8.53861C 7.5172 9.21714 9.43328 8.19243 11.0733 8.04333L 10.9827 7.04744C 8.95615 7.23168 7.53905 8.20699 3.61033 7.55221L 3.44593 8.53861ZM 10.8816 5.89894C 11.0144 5.76611 11.1129 5.56257 11.0859 5.31986C 11.0602 5.08881 10.93 4.90304 10.778 4.76398C 10.4859 4.49668 9.96587 4.26446 9.14929 4.06032L 8.90675 5.03046C 9.69017 5.22631 10.0035 5.41076 10.103 5.50179C 10.1468 5.54189 10.1021 5.52072 10.092 5.43029C 10.0807 5.3282 10.125 5.24133 10.1745 5.19183L 10.8816 5.89894ZM 9.14929 4.06032C 8.04797 3.79578 7.18788 3.92858 6.55496 4.0551C 5.87022 4.19204 5.56567 4.2552 5.25162 4.09817L 4.80441 4.9926C 5.49036 5.33558 6.18582 5.14873 6.75108 5.03568C 7.36816 4.91219 8.00807 4.79499 8.90675 5.03046L 9.14929 4.06032ZM 5.25162 4.09817C 5.12746 4.03609 5.10029 3.98512 5.09501 3.97403C 5.08908 3.9616 5.0799 3.93362 5.09275 3.87121C 5.12331 3.72276 5.24896 3.53155 5.38157 3.39894L 4.67446 2.69183C 4.47374 2.89256 4.19939 3.25134 4.11329 3.66956C 4.07544 3.8722 4.09492 4.17664 4.19228 4.40424C 4.31407 4.65982 4.52857 4.85468 4.80441 4.9926L 5.25162 4.09817Z"/>
<path id="path14_stroke" d="M -0.499877 0.0111084C -0.415705 3.781 0.168433 9.47499 1.63495 14.2106C 2.37188 16.583 3.35957 18.7759 4.61067 20.3508C 5.88714 21.9512 7.50119 23 9.5 23L 9.5 22C 7.89881 22 6.5462 21.1738 5.39245 19.7273C 4.21335 18.2553 3.30729 16.2295 2.59005 13.9144C 1.14823 9.27501 0.582371 3.719 0.499877 -0.0111084L -0.499877 0.0111084ZM 90.0001 -0.0111084C 89.9176 3.719 89.3518 9.27501 87.91 13.9144C 87.1927 16.2295 86.2867 18.2553 85.1075 19.7273C 83.9538 21.1738 82.6012 22 81 22L 81 23C 82.9988 23 84.6129 21.9512 85.8893 20.3508C 87.1404 18.7759 88.1281 16.583 88.8651 14.2106C 90.3316 9.47499 90.9157 3.781 90.9999 0.0111084L 90.0001 -0.0111084ZM 9.5 23L 81 23L 81 22L 9.5 22L 9.5 23Z"/>
<path id="path15_fill" d="M 52.4471 88C 6.85844 88 -0.840536 63.5232 1.00856 51.2848L 0 18.649L 33.2838 0L 97.8341 8.15894L 105.903 51.2848C 107.08 63.5232 98.0358 88 52.4471 88Z"/>
<path id="path16_fill" d="M 0 1C 0 0.447715 0.447715 0 1 0L 23 0C 23.5523 0 24 0.447715 24 1L 24 10C 24 10.5523 23.5523 11 23 11L 1 11C 0.447715 11 0 10.5523 0 10L 0 1Z"/>
<path id="path17_stroke_2x" d="M 1 1L 23 1L 23 -1L 1 -1L 1 1ZM 23 1L 23 10L 25 10L 25 1L 23 1ZM 23 10L 1 10L 1 12L 23 12L 23 10ZM 1 10L 1 1L -1 1L -1 10L 1 10ZM 1 -1C -0.10457 -1 -1 -0.10457 -1 1L 1 1L 1 -1ZM 23 1L 25 1C 25 -0.10457 24.1046 -1 23 -1L 23 1ZM 23 10L 23 12C 24.1046 12 25 11.1046 25 10L 23 10ZM 1 10L -1 10C -1 11.1046 -0.10457 12 1 12L 1 10Z"/>
<path id="path18_fill" fill-rule="evenodd" d="M 7.77588 1.09131C 6.44189 0.580566 5.13867 0.417969 4 0.425781C 2.86133 0.417969 1.55762 0.580566 0.224121 1.09131C 0.0649414 0.838379 0 0.685059 0 0.685059C 1.45801 0.177734 2.82373 0.00439453 4 0C 5.17578 0.00439453 6.5415 0.177734 8 0.685059C 8 0.685059 7.9541 0.80957 7.77588 1.09131ZM 5.11963 1.46924L 4.00049 7L 2.87207 1.46826C 1.8125 1.46875 1.47656 1.57178 1.42773 1.99121C 1.42773 1.99121 0.711914 1.75684 0.351074 1.28076C 1.75928 0.707031 3.1748 0.681152 3.1748 0.681152L 3.99854 1.56494L 4.82422 0.681152C 4.82422 0.681152 6.23975 0.707031 7.64795 1.28076C 7.28711 1.75684 6.57129 1.99121 6.57129 1.99121C 6.52295 1.57178 6.18652 1.46924 5.11963 1.46924Z"/>
<path id="path19_fill" d="M 33.5 0C 18.3 0 4.83333 1.33333 0 2L 67.5 2C 62.5 1.33333 48.7 0 33.5 0Z"/>
<path id="path20_fill" d="M 22 0.0845489L 18.5 3.58455C 16.5 2.78461 5.33333 3.25124 0 3.58455C 0 3.58455 2.4 2.28455 8 1.08455C 13.6 -0.115451 19.6667 -0.0821178 22 0.0845489Z"/>
<path id="path21_stroke" d="M 0 0.5L 101 0.5L 101 -0.5L 0 -0.5L 0 0.5Z"/>
<path id="path22_fill" d="M 14 4L 16.5 4L 16.5 7L 14 7C 14 9 11.5 10.5 7.5 10.5C 3 10.5 0 10 0 7C 0 2.5 8 0 11 0C 13.4 0 14 2.66667 14 4Z"/>
<path id="path23_fill" fill-rule="evenodd" d="M 11.0903 6.38086C 10.0483 6.77417 8.72217 7 7.16992 7C 3.54639 7 0.89502 6.67578 0 4.98315C 1.41553 2.64844 6.99512 0 9.16992 0C 11.6699 0 12.1699 2 12.1699 3.5C 12.1699 4.41528 11.5884 5.58252 11.0903 6.38086Z"/>
<path id="path24_fill" fill-rule="evenodd" d="M 0 4.98315C 1.41528 2.64844 6.99512 0 9.16968 0C 11.6697 0 12.1697 2 12.1697 3.5C 12.1697 4.41528 11.5879 5.58252 11.0898 6.38086C 10.0479 6.77417 8.72168 7 7.16968 7C 3.54614 7 0.895264 6.67578 0 4.98315Z"/>
<path id="path25_fill" d="M 0 7C 0 3.13401 3.13401 0 7 0L 93 0C 96.866 0 100 3.13401 100 7C 100 10.866 96.866 14 93 14L 7 14C 3.13401 14 0 10.866 0 7Z"/>
</defs>
</svg>
